<svg width="24" height="23" viewBox="0 0 24 23" fill="none" xmlns="http://www.w3.org/2000/svg">
<g id="CALL">
<path id="Vector 54" d="M6.5024 1.90985C5.93509 2.22812 5.51405 2.50153 4.87008 3.02702C4.36283 3.44095 4.07391 4.07015 4.12626 4.72276C4.62623 10.9559 9.50105 18.0352 13.9244 21.2243C14.5081 21.6451 15.276 21.7024 15.9262 21.394C16.8419 20.9596 17.2977 20.6294 17.9389 20.1169C18.8434 19.394 19.0869 18.1037 18.4925 17.11L17.6035 15.624C17.022 14.6518 15.7541 14.3493 14.7963 14.954C14.1466 15.3642 13.3107 15.382 12.6976 14.919C10.756 13.4527 9.59877 11.6318 8.94145 9.17601C8.72685 8.37422 9.04803 7.5367 9.69222 7.01329L9.83922 6.89386C10.7362 6.16507 10.942 4.87852 10.3172 3.90625L9.52973 2.68085C8.88116 1.67162 7.54865 1.32287 6.5024 1.90985Z" stroke="#FF772C" stroke-width="1.5"/>
<path id="Vector 55" d="M14.9064 6.05078C17.1559 6.34724 18.4579 8.04454 18.112 10.6689" stroke="#FF772C" stroke-width="1.5" stroke-linecap="round"/>
<path id="Vector 56" d="M16.337 2C20.3861 2.53363 22.6902 5.8887 21.9985 11.1375" stroke="#FF772C" stroke-width="1.5" stroke-linecap="round"/>
</g>
</svg>
