<svg width="36" height="36" viewBox="0 0 36 36" fill="none" xmlns="http://www.w3.org/2000/svg">
<g clip-path="url(#clip0_3213_7671)">
<mask id="path-1-outside-1_3213_7671" maskUnits="userSpaceOnUse" x="3.57498" y="3.20044" width="29" height="29" fill="black">
<rect fill="white" x="3.57498" y="3.20044" width="29" height="29"/>
<path d="M18.375 4.20044C10.7606 4.20044 4.57498 10.386 4.57498 18.0004C4.57498 25.6149 10.7606 31.8004 18.375 31.8004C25.9894 31.8004 32.175 25.6149 32.175 18.0004C32.175 10.386 25.9894 4.20044 18.375 4.20044ZM18.375 5.40044C25.3409 5.40044 30.975 11.0345 30.975 18.0004C30.975 24.9663 25.3409 30.6004 18.375 30.6004C11.4091 30.6004 5.77498 24.9663 5.77498 18.0004C5.77498 11.0345 11.4091 5.40044 18.375 5.40044ZM23.8277 11.4215C23.4173 11.4215 22.9562 11.5166 22.4168 11.711C21.5792 12.0128 11.7274 16.1957 10.6066 16.6715C9.96582 16.9439 8.77264 17.4506 8.77264 18.659C8.77264 19.46 9.242 20.0329 10.166 20.3629C10.6628 20.5399 11.8427 20.8976 12.5273 21.086C12.8177 21.1658 13.1263 21.2067 13.4437 21.2067C14.0647 21.2067 14.6897 21.052 15.1793 20.779C15.1751 20.8798 15.1778 20.9816 15.1898 21.0836C15.2636 21.7136 15.6521 22.3062 16.2281 22.6692C16.6049 22.9068 19.6826 24.9689 20.1422 25.2965C20.7878 25.7579 21.5015 26.002 22.2047 26.002C23.5487 26.002 23.9996 24.6143 24.2168 23.9477C24.5318 22.9799 25.7113 15.1097 25.8445 13.7219C25.9351 12.7709 25.5388 11.9878 24.784 11.6266C24.5014 11.4904 24.1787 11.4215 23.8277 11.4215ZM23.8277 12.6215C23.9927 12.6215 24.14 12.6488 24.2648 12.7094C24.5486 12.8456 24.693 13.1493 24.6492 13.6083C24.504 15.1221 23.3273 22.8058 23.0765 23.5762C22.8617 24.235 22.6355 24.802 22.2047 24.802C21.7739 24.802 21.3032 24.651 20.8394 24.3192C20.3756 23.988 17.2957 21.9226 16.8679 21.6532C16.4929 21.4168 16.0961 20.8275 16.6547 20.2575C17.1149 19.7883 20.6057 16.4002 20.9039 16.102C21.1259 15.8794 21.0221 15.611 20.8043 15.611C20.7293 15.611 20.6395 15.6426 20.5465 15.7188C20.1817 16.017 15.0958 19.4202 14.6554 19.6938C14.3638 19.875 13.9123 20.0055 13.4437 20.0055C13.2439 20.0055 13.0416 19.9816 12.8472 19.9282C12.1704 19.7416 11.0251 19.3941 10.5703 19.2321C10.1329 19.0761 9.97381 18.9266 9.97381 18.659C9.97381 18.2786 10.5107 18.016 11.0765 17.7754C11.6741 17.5216 22.0146 13.1305 22.8234 12.8395C23.1978 12.7039 23.5403 12.6215 23.8277 12.6215Z"/>
</mask>
<path d="M18.375 4.20044C10.7606 4.20044 4.57498 10.386 4.57498 18.0004C4.57498 25.6149 10.7606 31.8004 18.375 31.8004C25.9894 31.8004 32.175 25.6149 32.175 18.0004C32.175 10.386 25.9894 4.20044 18.375 4.20044ZM18.375 5.40044C25.3409 5.40044 30.975 11.0345 30.975 18.0004C30.975 24.9663 25.3409 30.6004 18.375 30.6004C11.4091 30.6004 5.77498 24.9663 5.77498 18.0004C5.77498 11.0345 11.4091 5.40044 18.375 5.40044ZM23.8277 11.4215C23.4173 11.4215 22.9562 11.5166 22.4168 11.711C21.5792 12.0128 11.7274 16.1957 10.6066 16.6715C9.96582 16.9439 8.77264 17.4506 8.77264 18.659C8.77264 19.46 9.242 20.0329 10.166 20.3629C10.6628 20.5399 11.8427 20.8976 12.5273 21.086C12.8177 21.1658 13.1263 21.2067 13.4437 21.2067C14.0647 21.2067 14.6897 21.052 15.1793 20.779C15.1751 20.8798 15.1778 20.9816 15.1898 21.0836C15.2636 21.7136 15.6521 22.3062 16.2281 22.6692C16.6049 22.9068 19.6826 24.9689 20.1422 25.2965C20.7878 25.7579 21.5015 26.002 22.2047 26.002C23.5487 26.002 23.9996 24.6143 24.2168 23.9477C24.5318 22.9799 25.7113 15.1097 25.8445 13.7219C25.9351 12.7709 25.5388 11.9878 24.784 11.6266C24.5014 11.4904 24.1787 11.4215 23.8277 11.4215ZM23.8277 12.6215C23.9927 12.6215 24.14 12.6488 24.2648 12.7094C24.5486 12.8456 24.693 13.1493 24.6492 13.6083C24.504 15.1221 23.3273 22.8058 23.0765 23.5762C22.8617 24.235 22.6355 24.802 22.2047 24.802C21.7739 24.802 21.3032 24.651 20.8394 24.3192C20.3756 23.988 17.2957 21.9226 16.8679 21.6532C16.4929 21.4168 16.0961 20.8275 16.6547 20.2575C17.1149 19.7883 20.6057 16.4002 20.9039 16.102C21.1259 15.8794 21.0221 15.611 20.8043 15.611C20.7293 15.611 20.6395 15.6426 20.5465 15.7188C20.1817 16.017 15.0958 19.4202 14.6554 19.6938C14.3638 19.875 13.9123 20.0055 13.4437 20.0055C13.2439 20.0055 13.0416 19.9816 12.8472 19.9282C12.1704 19.7416 11.0251 19.3941 10.5703 19.2321C10.1329 19.0761 9.97381 18.9266 9.97381 18.659C9.97381 18.2786 10.5107 18.016 11.0765 17.7754C11.6741 17.5216 22.0146 13.1305 22.8234 12.8395C23.1978 12.7039 23.5403 12.6215 23.8277 12.6215Z" fill="#FF772C"/>
<path d="M18.375 4.20044C10.7606 4.20044 4.57498 10.386 4.57498 18.0004C4.57498 25.6149 10.7606 31.8004 18.375 31.8004C25.9894 31.8004 32.175 25.6149 32.175 18.0004C32.175 10.386 25.9894 4.20044 18.375 4.20044ZM18.375 5.40044C25.3409 5.40044 30.975 11.0345 30.975 18.0004C30.975 24.9663 25.3409 30.6004 18.375 30.6004C11.4091 30.6004 5.77498 24.9663 5.77498 18.0004C5.77498 11.0345 11.4091 5.40044 18.375 5.40044ZM23.8277 11.4215C23.4173 11.4215 22.9562 11.5166 22.4168 11.711C21.5792 12.0128 11.7274 16.1957 10.6066 16.6715C9.96582 16.9439 8.77264 17.4506 8.77264 18.659C8.77264 19.46 9.242 20.0329 10.166 20.3629C10.6628 20.5399 11.8427 20.8976 12.5273 21.086C12.8177 21.1658 13.1263 21.2067 13.4437 21.2067C14.0647 21.2067 14.6897 21.052 15.1793 20.779C15.1751 20.8798 15.1778 20.9816 15.1898 21.0836C15.2636 21.7136 15.6521 22.3062 16.2281 22.6692C16.6049 22.9068 19.6826 24.9689 20.1422 25.2965C20.7878 25.7579 21.5015 26.002 22.2047 26.002C23.5487 26.002 23.9996 24.6143 24.2168 23.9477C24.5318 22.9799 25.7113 15.1097 25.8445 13.7219C25.9351 12.7709 25.5388 11.9878 24.784 11.6266C24.5014 11.4904 24.1787 11.4215 23.8277 11.4215ZM23.8277 12.6215C23.9927 12.6215 24.14 12.6488 24.2648 12.7094C24.5486 12.8456 24.693 13.1493 24.6492 13.6083C24.504 15.1221 23.3273 22.8058 23.0765 23.5762C22.8617 24.235 22.6355 24.802 22.2047 24.802C21.7739 24.802 21.3032 24.651 20.8394 24.3192C20.3756 23.988 17.2957 21.9226 16.8679 21.6532C16.4929 21.4168 16.0961 20.8275 16.6547 20.2575C17.1149 19.7883 20.6057 16.4002 20.9039 16.102C21.1259 15.8794 21.0221 15.611 20.8043 15.611C20.7293 15.611 20.6395 15.6426 20.5465 15.7188C20.1817 16.017 15.0958 19.4202 14.6554 19.6938C14.3638 19.875 13.9123 20.0055 13.4437 20.0055C13.2439 20.0055 13.0416 19.9816 12.8472 19.9282C12.1704 19.7416 11.0251 19.3941 10.5703 19.2321C10.1329 19.0761 9.97381 18.9266 9.97381 18.659C9.97381 18.2786 10.5107 18.016 11.0765 17.7754C11.6741 17.5216 22.0146 13.1305 22.8234 12.8395C23.1978 12.7039 23.5403 12.6215 23.8277 12.6215Z" stroke="#FF772C" stroke-width="0.45" mask="url(#path-1-outside-1_3213_7671)"/>
</g>
<defs>
<clipPath id="clip0_3213_7671">
<rect width="30" height="30" fill="white" transform="translate(3.375 3.00037)"/>
</clipPath>
</defs>
</svg>
