<svg width="96" height="96" viewBox="0 0 96 96" fill="none" xmlns="http://www.w3.org/2000/svg">
<g id="Icon New Set">
<circle id="Ellipse 38" cx="48" cy="48" r="47.5" stroke="#FF965C"/>
<path id="Vector 59" d="M68.5 68.5H27.5C26.9477 68.5 26.5 68.0523 26.5 67.5V43C26.5 42.4477 26.9477 42 27.5 42H39C39.5523 42 40 42.4477 40 43V46C40 46.5523 39.5523 47 39 47H33C32.4477 47 32 47.4477 32 48V62C32 62.5523 32.4477 63 33 63H63C63.5523 63 64 62.5523 64 62V48.5C64 47.9477 63.5523 47.5 63 47.5H57.5C56.9477 47.5 56.5 47.0523 56.5 46.5V43C56.5 42.4477 56.9477 42 57.5 42H68.5C69.0523 42 69.5 42.4477 69.5 43V67.5C69.5 68.0523 69.0523 68.5 68.5 68.5Z" stroke="#252321"/>
<path id="Vector 60" d="M35 51V59C35 59.5523 35.4477 60 36 60H60C60.5523 60 61 59.5523 61 59V51C61 50.4477 60.5523 50 60 50H55C54.4477 50 54 49.5523 54 49V25.5C54 24.9477 53.5523 24.5 53 24.5H43.5C42.9477 24.5 42.5 24.9477 42.5 25.5V49C42.5 49.5523 42.0523 50 41.5 50H36C35.4477 50 35 50.4477 35 51Z" stroke="#252321"/>
</g>
</svg>
