<svg width="18" height="18" viewBox="0 0 18 18" fill="none" xmlns="http://www.w3.org/2000/svg">
<g id="noun-print-1150486 1" clip-path="url(#clip0_3008_22174)">
<path id="Vector" d="M16.6183 3.55851V2.70645C16.6183 2.43625 16.3994 2.21732 16.1292 2.21732C15.859 2.21732 15.64 2.43625 15.64 2.70645V3.55421H2.36015V1.01073H15.64V1.10856C15.64 1.37875 15.859 1.59769 16.1292 1.59769C16.3994 1.59769 16.6183 1.37875 16.6183 1.10856V0.521601C16.6183 0.251405 16.3994 0.0324707 16.1292 0.0324707H1.87102C1.60083 0.0324707 1.38189 0.251405 1.38189 0.521601V3.55851C0.612587 3.60332 0 4.24134 0 5.0216V11.6084C0 12.4176 0.658174 13.0758 1.46739 13.0758H3.26093V17.0867C3.26093 17.3569 3.47987 17.5758 3.75007 17.5758H14.4456C14.7158 17.5758 14.9347 17.3569 14.9347 17.0867V13.0758H16.5326C17.3418 13.0758 18 12.4176 18 11.6084V5.0216C18 4.24134 17.3874 3.60332 16.6183 3.55851ZM13.9565 16.5975H4.2392V11.0541H13.9565V16.5975ZM17.0217 11.6084C17.0217 11.8782 16.8024 12.0975 16.5326 12.0975H14.9347V11.0541H15.2935C15.5637 11.0541 15.7827 10.8352 15.7827 10.565C15.7827 10.2948 15.5637 10.0759 15.2935 10.0759H2.70646C2.43626 10.0759 2.21733 10.2948 2.21733 10.565C2.21733 10.8352 2.43626 11.0541 2.70646 11.0541H3.26093V12.0975H1.46739C1.19759 12.0975 0.978261 11.8782 0.978261 11.6084V5.0216C0.978261 4.75179 1.19759 4.53247 1.46739 4.53247H16.5326C16.8024 4.53247 17.0217 4.75179 17.0217 5.0216V11.6084ZM5.86957 13.4671H12.1304C12.4006 13.4671 12.6196 13.2482 12.6196 12.978C12.6196 12.7078 12.4006 12.4889 12.1304 12.4889H5.86957C5.59937 12.4889 5.38043 12.7078 5.38043 12.978C5.38043 13.2482 5.59937 13.4671 5.86957 13.4671ZM5.86957 15.5543H12.1304C12.4006 15.5543 12.6196 15.3354 12.6196 15.0652C12.6196 14.795 12.4006 14.5761 12.1304 14.5761H5.86957C5.59937 14.5761 5.38043 14.795 5.38043 15.0652C5.38043 15.3354 5.59937 15.5543 5.86957 15.5543ZM15.2937 5.80401H11.7067C11.4365 5.80401 11.2175 6.02294 11.2175 6.29314V8.11935C11.2175 8.38955 11.4365 8.60848 11.7067 8.60848H15.2937C15.5639 8.60848 15.7829 8.38955 15.7829 8.11935V6.29314C15.7829 6.02294 15.5639 5.80401 15.2937 5.80401ZM14.8046 7.63022H12.1958V6.78227H14.8046V7.63022Z" fill="#252321"/>
</g>
<defs>
<clipPath id="clip0_3008_22174">
<rect width="18" height="17.6087" fill="white"/>
</clipPath>
</defs>
</svg>
