<svg width="10" height="26" viewBox="0 0 10 26" fill="none" xmlns="http://www.w3.org/2000/svg">
<path d="M1.392 19.0002V7.57617H4.4C5.79733 7.57617 6.832 7.85884 7.504 8.42417C8.18667 8.98951 8.528 9.81084 8.528 10.8882C8.528 11.6135 8.36267 12.2375 8.032 12.7602C7.70133 13.2722 7.21067 13.6668 6.56 13.9442C5.92 14.2215 5.12533 14.3602 4.176 14.3602H2.832V19.0002H1.392ZM0 16.8242V15.7842H5.472V16.8242H0ZM0 14.3602V13.1442H3.664V14.3602H0ZM3.968 13.1442C4.61867 13.1442 5.168 13.0748 5.616 12.9362C6.07467 12.7975 6.42667 12.5682 6.672 12.2482C6.91733 11.9282 7.04 11.4908 7.04 10.9362C7.04 10.2108 6.816 9.67217 6.368 9.32017C5.92 8.96817 5.22133 8.79217 4.272 8.79217H2.832V13.1442H3.968Z" fill="#79716C"/>
</svg>
