<svg width="16" height="16" viewBox="0 0 16 16" fill="none" xmlns="http://www.w3.org/2000/svg">
<g id="share 1">
<path id="Vector" d="M14.5999 2.89996C14.5999 3.42743 14.4454 3.94336 14.1556 4.38403C13.8657 4.82469 13.453 5.1708 12.9687 5.37959C12.4843 5.58839 11.9493 5.65073 11.4299 5.55892C10.9105 5.4671 10.4293 5.22515 10.0459 4.86296L5.30288 7.27996C5.43314 7.75112 5.43314 8.2488 5.30288 8.71996L10.0459 11.137C10.5056 10.7028 11.1031 10.4437 11.7342 10.4049C12.3653 10.3661 12.99 10.5501 13.4994 10.9247C14.0088 11.2993 14.3706 11.8408 14.5216 12.4548C14.6727 13.0688 14.6035 13.7163 14.326 14.2845C14.0486 14.8527 13.5805 15.3055 13.0035 15.564C12.4264 15.8224 11.7769 15.8702 11.1682 15.6988C10.5596 15.5275 10.0304 15.148 9.67284 14.6265C9.31533 14.1049 9.15219 13.4744 9.21188 12.845L4.16188 10.27C3.75407 10.5326 3.28303 10.6805 2.79829 10.6982C2.31354 10.7158 1.83299 10.6026 1.40715 10.3703C0.981308 10.138 0.625902 9.79534 0.378288 9.37824C0.130675 8.96113 0 8.48502 0 7.99996C0 7.51489 0.130675 7.03878 0.378288 6.62168C0.625902 6.20457 0.981308 5.86188 1.40715 5.62961C1.83299 5.39735 2.31354 5.28409 2.79829 5.30175C3.28303 5.31941 3.75407 5.46732 4.16188 5.72996L9.21188 3.15496C9.17748 2.79133 9.21722 2.4245 9.3287 2.07667C9.44017 1.72884 9.62106 1.40724 9.86041 1.13134C10.0998 0.855445 10.3926 0.63098 10.7212 0.471532C11.0498 0.312084 11.4074 0.22097 11.7722 0.203703C12.1371 0.186435 12.5016 0.243374 12.8439 0.371074C13.1861 0.498773 13.4988 0.694578 13.7631 0.946638C14.0275 1.1987 14.2379 1.50177 14.3818 1.83752C14.5256 2.17327 14.5998 2.5347 14.5999 2.89996Z" fill="black"/>
</g>
</svg>
