<svg width="96" height="96" viewBox="0 0 96 96" fill="none" xmlns="http://www.w3.org/2000/svg">
<circle cx="48" cy="48" r="47.5" fill="#FF965C" stroke="#FF965C"/>
<path d="M49.9043 44.1559V22M49.9043 22L70 34.8619M49.9043 22L25 33.217M25 33.217L25 58.0684C25 58.3894 25.1541 58.6908 25.4142 58.8789L44.367 72.5792M25 33.217L44.367 46.7171M44.367 46.7171V72.5792M44.367 46.7171L70 34.8619M44.367 72.5792L69.4198 60.9924C69.7735 60.8287 70 60.4745 70 60.0847V34.8619" stroke="#252321" stroke-linejoin="round"/>
<path d="M31.3999 63.2183L31.3999 48.1899C31.3999 47.7832 31.8596 47.5466 32.1906 47.783L36.7906 51.0687C36.922 51.1626 37 51.3141 37 51.4756L36.9999 67.2183" stroke="#252321"/>
<path d="M50 53.515V61.6335C50 61.9657 50.3437 62.1864 50.6458 62.0482L55.2066 59.9617C55.3689 59.8874 55.4729 59.7254 55.4729 59.5469V51.4285C55.4729 51.0963 55.1292 50.8755 54.8271 51.0137L50.2663 53.1003C50.1041 53.1745 50 53.3366 50 53.515Z" stroke="#252321"/>
<path d="M60 48.515V56.6335C60 56.9657 60.3437 57.1864 60.6458 57.0482L65.2066 54.9617C65.3689 54.8874 65.4729 54.7254 65.4729 54.5469V46.4285C65.4729 46.0963 65.1292 45.8755 64.8271 46.0137L60.2663 48.1003C60.1041 48.1745 60 48.3366 60 48.515Z" stroke="#252321"/>
</svg>
