<svg width="96" height="96" viewBox="0 0 96 96" fill="none" xmlns="http://www.w3.org/2000/svg">
<g id="Property 1=Variant2">
<circle id="Ellipse 38" cx="48" cy="48" r="47.5"/>
<path id="Vector 61" d="M34.9362 36.1379L24.4532 30.8079C23.788 30.4696 23 30.9529 23 31.6993V65.3176C23 65.694 23.2113 66.0385 23.5468 66.209L34.9362 72M34.9362 36.1379V72M34.9362 36.1379L47.4149 30.1803M34.9362 72L47.4149 66.0424M47.4149 66.0424V30.1803M47.4149 66.0424L60.1649 59.8621M47.4149 30.1803L60.1649 24M60.1649 24L72.4017 29.3679C72.7652 29.5273 73 29.8867 73 30.2836V63.9617C73 64.6833 72.2591 65.1674 71.5983 64.8775L60.1649 59.8621M60.1649 24V59.8621" stroke="#252321" stroke-linejoin="round"/>
</g>
</svg>
