<svg width="25" height="24" viewBox="0 0 25 24" fill="none" xmlns="http://www.w3.org/2000/svg">
<g id="Frame" clip-path="url(#clip0_3102_15032)">
<g id="Vector">
<mask id="path-1-outside-1_3102_15032" maskUnits="userSpaceOnUse" x="0.293335" y="-0.0400391" width="24" height="24" fill="black">
<rect fill="white" x="0.293335" y="-0.0400391" width="24" height="24"/>
<path d="M12.3333 0.959961C6.24191 0.959961 1.29333 5.90854 1.29333 12C1.29333 13.9579 1.8303 15.7852 2.72583 17.3803L1.31115 22.4306C1.28855 22.5114 1.28753 22.5967 1.30819 22.6781C1.32885 22.7594 1.37047 22.8339 1.4289 22.8941C1.48733 22.9544 1.56053 22.9982 1.64119 23.0213C1.72186 23.0445 1.80718 23.046 1.88865 23.0259L7.15459 21.7209C8.70196 22.547 10.4578 23.04 12.3333 23.04C18.4248 23.04 23.3733 18.0914 23.3733 12C23.3733 5.90854 18.4248 0.959961 12.3333 0.959961ZM12.3333 1.91996C17.9059 1.91996 22.4133 6.42738 22.4133 12C22.4133 17.5725 17.9059 22.08 12.3333 22.08C10.5468 22.08 8.87355 21.6142 7.41896 20.8003C7.31257 20.7408 7.18756 20.7241 7.06927 20.7534L2.45771 21.8962L3.69427 17.4843C3.71197 17.422 3.71685 17.3567 3.70863 17.2924C3.70042 17.2281 3.67927 17.1662 3.64646 17.1103C2.76246 15.6113 2.25333 13.8672 2.25333 12C2.25333 6.42738 6.76076 1.91996 12.3333 1.91996ZM8.32177 6.23996C8.01407 6.23996 7.57464 6.35444 7.21365 6.7434C6.99682 6.97702 6.09333 7.85733 6.09333 9.40496C6.09333 11.0185 7.2124 12.4108 7.34771 12.5896H7.34865V12.5906C7.33581 12.5737 7.52039 12.841 7.76677 13.1615C8.01316 13.482 8.35769 13.903 8.79052 14.3587C9.65619 15.2702 10.8733 16.3235 12.384 16.9678C13.0796 17.264 13.6285 17.4429 14.0443 17.5734C14.8149 17.8154 15.5167 17.7786 16.044 17.7009C16.4386 17.6428 16.8726 17.4533 17.3021 17.1815C17.7315 16.9098 18.1524 16.5718 18.338 16.0584C18.471 15.6903 18.5386 15.3502 18.563 15.0703C18.5752 14.9303 18.5768 14.8068 18.5677 14.6925C18.5586 14.5781 18.5683 14.4905 18.4618 14.3156C18.2383 13.9487 17.9852 13.9391 17.7211 13.8084C17.5744 13.7358 17.1567 13.5318 16.7377 13.3321C16.3192 13.1327 15.9568 12.9561 15.7336 12.8765C15.5926 12.8258 15.4205 12.7528 15.1721 12.7809C14.9237 12.809 14.6784 12.9882 14.5355 13.2C14.4001 13.4006 13.8551 14.044 13.689 14.2331C13.6868 14.2317 13.7012 14.2384 13.6355 14.2059C13.43 14.1042 13.1787 14.0177 12.8068 13.8215C12.4349 13.6253 11.9696 13.3356 11.4605 12.8868V12.8859C10.7028 12.2188 10.172 11.3813 10.0046 11.1C10.0159 11.0865 10.0032 11.1028 10.0271 11.0793L10.028 11.0784C10.1991 10.9098 10.3508 10.7085 10.479 10.5609C10.6607 10.3516 10.7408 10.1671 10.8277 9.99465C11.0008 9.65105 10.9044 9.27296 10.8043 9.07402V9.07309C10.8112 9.08685 10.7501 8.95204 10.6843 8.79652C10.6183 8.64057 10.5341 8.43838 10.4443 8.22277C10.2646 7.79156 10.0639 7.30792 9.94458 7.02465V7.02371C9.80402 6.69005 9.61384 6.44968 9.36521 6.33371C9.11658 6.21774 8.89691 6.25071 8.88802 6.25027H8.88708C8.70966 6.24209 8.51495 6.23996 8.32177 6.23996ZM8.32177 7.19996C8.50683 7.19996 8.68928 7.20222 8.84208 7.20934C8.99928 7.21717 8.9895 7.21781 8.95927 7.20371C8.92856 7.18939 8.97023 7.18474 9.05958 7.39684C9.17642 7.67421 9.37806 8.1596 9.55833 8.59215C9.64847 8.80842 9.73283 9.01139 9.80021 9.17059C9.86759 9.32978 9.90409 9.41866 9.94646 9.5034V9.50434L9.9474 9.50527C9.98894 9.58723 9.98526 9.53476 9.97083 9.5634C9.86954 9.76444 9.8558 9.8138 9.75333 9.93184C9.59733 10.1116 9.43819 10.312 9.35396 10.395C9.28027 10.4674 9.1473 10.5801 9.06427 10.8009C8.98112 11.022 9.01993 11.3254 9.15333 11.5518C9.33095 11.8534 9.91625 12.806 10.8258 13.6068C11.3987 14.1118 11.9323 14.446 12.3586 14.6709C12.785 14.8958 13.1322 15.0271 13.2099 15.0656C13.3944 15.1569 13.596 15.2278 13.8305 15.1996C14.065 15.1715 14.2671 15.0292 14.3958 14.8837L14.3968 14.8828C14.568 14.6886 15.0769 14.1075 15.3211 13.7493C15.3315 13.753 15.3281 13.7502 15.4093 13.7793V13.7803H15.4102C15.4473 13.7935 15.9114 14.0012 16.3252 14.1984C16.739 14.3956 17.159 14.6005 17.2955 14.6681C17.4925 14.7656 17.5855 14.829 17.6096 14.8293C17.6112 14.8716 17.6129 14.9173 17.6068 14.9868C17.5899 15.1796 17.5384 15.4465 17.4352 15.7321C17.3847 15.872 17.1213 16.1604 16.7893 16.3706C16.4572 16.5807 16.053 16.7292 15.9033 16.7512C15.4533 16.8175 14.9189 16.8417 14.3321 16.6575C13.9252 16.5297 13.4178 16.3644 12.7608 16.0846C11.4284 15.5164 10.296 14.5495 9.48708 13.6978C9.08262 13.2719 8.75856 12.8755 8.52802 12.5756C8.29791 12.2762 8.19743 12.1205 8.11365 12.0103L8.11271 12.0093C7.96399 11.8127 7.05333 10.546 7.05333 9.40496C7.05333 8.1974 7.61421 7.72385 7.91771 7.39684C8.07704 7.22516 8.25123 7.19996 8.32177 7.19996Z"/>
</mask>
<path d="M12.3333 0.959961C6.24191 0.959961 1.29333 5.90854 1.29333 12C1.29333 13.9579 1.8303 15.7852 2.72583 17.3803L1.31115 22.4306C1.28855 22.5114 1.28753 22.5967 1.30819 22.6781C1.32885 22.7594 1.37047 22.8339 1.4289 22.8941C1.48733 22.9544 1.56053 22.9982 1.64119 23.0213C1.72186 23.0445 1.80718 23.046 1.88865 23.0259L7.15459 21.7209C8.70196 22.547 10.4578 23.04 12.3333 23.04C18.4248 23.04 23.3733 18.0914 23.3733 12C23.3733 5.90854 18.4248 0.959961 12.3333 0.959961ZM12.3333 1.91996C17.9059 1.91996 22.4133 6.42738 22.4133 12C22.4133 17.5725 17.9059 22.08 12.3333 22.08C10.5468 22.08 8.87355 21.6142 7.41896 20.8003C7.31257 20.7408 7.18756 20.7241 7.06927 20.7534L2.45771 21.8962L3.69427 17.4843C3.71197 17.422 3.71685 17.3567 3.70863 17.2924C3.70042 17.2281 3.67927 17.1662 3.64646 17.1103C2.76246 15.6113 2.25333 13.8672 2.25333 12C2.25333 6.42738 6.76076 1.91996 12.3333 1.91996ZM8.32177 6.23996C8.01407 6.23996 7.57464 6.35444 7.21365 6.7434C6.99682 6.97702 6.09333 7.85733 6.09333 9.40496C6.09333 11.0185 7.2124 12.4108 7.34771 12.5896H7.34865V12.5906C7.33581 12.5737 7.52039 12.841 7.76677 13.1615C8.01316 13.482 8.35769 13.903 8.79052 14.3587C9.65619 15.2702 10.8733 16.3235 12.384 16.9678C13.0796 17.264 13.6285 17.4429 14.0443 17.5734C14.8149 17.8154 15.5167 17.7786 16.044 17.7009C16.4386 17.6428 16.8726 17.4533 17.3021 17.1815C17.7315 16.9098 18.1524 16.5718 18.338 16.0584C18.471 15.6903 18.5386 15.3502 18.563 15.0703C18.5752 14.9303 18.5768 14.8068 18.5677 14.6925C18.5586 14.5781 18.5683 14.4905 18.4618 14.3156C18.2383 13.9487 17.9852 13.9391 17.7211 13.8084C17.5744 13.7358 17.1567 13.5318 16.7377 13.3321C16.3192 13.1327 15.9568 12.9561 15.7336 12.8765C15.5926 12.8258 15.4205 12.7528 15.1721 12.7809C14.9237 12.809 14.6784 12.9882 14.5355 13.2C14.4001 13.4006 13.8551 14.044 13.689 14.2331C13.6868 14.2317 13.7012 14.2384 13.6355 14.2059C13.43 14.1042 13.1787 14.0177 12.8068 13.8215C12.4349 13.6253 11.9696 13.3356 11.4605 12.8868V12.8859C10.7028 12.2188 10.172 11.3813 10.0046 11.1C10.0159 11.0865 10.0032 11.1028 10.0271 11.0793L10.028 11.0784C10.1991 10.9098 10.3508 10.7085 10.479 10.5609C10.6607 10.3516 10.7408 10.1671 10.8277 9.99465C11.0008 9.65105 10.9044 9.27296 10.8043 9.07402V9.07309C10.8112 9.08685 10.7501 8.95204 10.6843 8.79652C10.6183 8.64057 10.5341 8.43838 10.4443 8.22277C10.2646 7.79156 10.0639 7.30792 9.94458 7.02465V7.02371C9.80402 6.69005 9.61384 6.44968 9.36521 6.33371C9.11658 6.21774 8.89691 6.25071 8.88802 6.25027H8.88708C8.70966 6.24209 8.51495 6.23996 8.32177 6.23996ZM8.32177 7.19996C8.50683 7.19996 8.68928 7.20222 8.84208 7.20934C8.99928 7.21717 8.9895 7.21781 8.95927 7.20371C8.92856 7.18939 8.97023 7.18474 9.05958 7.39684C9.17642 7.67421 9.37806 8.1596 9.55833 8.59215C9.64847 8.80842 9.73283 9.01139 9.80021 9.17059C9.86759 9.32978 9.90409 9.41866 9.94646 9.5034V9.50434L9.9474 9.50527C9.98894 9.58723 9.98526 9.53476 9.97083 9.5634C9.86954 9.76444 9.8558 9.8138 9.75333 9.93184C9.59733 10.1116 9.43819 10.312 9.35396 10.395C9.28027 10.4674 9.1473 10.5801 9.06427 10.8009C8.98112 11.022 9.01993 11.3254 9.15333 11.5518C9.33095 11.8534 9.91625 12.806 10.8258 13.6068C11.3987 14.1118 11.9323 14.446 12.3586 14.6709C12.785 14.8958 13.1322 15.0271 13.2099 15.0656C13.3944 15.1569 13.596 15.2278 13.8305 15.1996C14.065 15.1715 14.2671 15.0292 14.3958 14.8837L14.3968 14.8828C14.568 14.6886 15.0769 14.1075 15.3211 13.7493C15.3315 13.753 15.3281 13.7502 15.4093 13.7793V13.7803H15.4102C15.4473 13.7935 15.9114 14.0012 16.3252 14.1984C16.739 14.3956 17.159 14.6005 17.2955 14.6681C17.4925 14.7656 17.5855 14.829 17.6096 14.8293C17.6112 14.8716 17.6129 14.9173 17.6068 14.9868C17.5899 15.1796 17.5384 15.4465 17.4352 15.7321C17.3847 15.872 17.1213 16.1604 16.7893 16.3706C16.4572 16.5807 16.053 16.7292 15.9033 16.7512C15.4533 16.8175 14.9189 16.8417 14.3321 16.6575C13.9252 16.5297 13.4178 16.3644 12.7608 16.0846C11.4284 15.5164 10.296 14.5495 9.48708 13.6978C9.08262 13.2719 8.75856 12.8755 8.52802 12.5756C8.29791 12.2762 8.19743 12.1205 8.11365 12.0103L8.11271 12.0093C7.96399 11.8127 7.05333 10.546 7.05333 9.40496C7.05333 8.1974 7.61421 7.72385 7.91771 7.39684C8.07704 7.22516 8.25123 7.19996 8.32177 7.19996Z" fill="#FF772C"/>
<path d="M12.3333 0.959961C6.24191 0.959961 1.29333 5.90854 1.29333 12C1.29333 13.9579 1.8303 15.7852 2.72583 17.3803L1.31115 22.4306C1.28855 22.5114 1.28753 22.5967 1.30819 22.6781C1.32885 22.7594 1.37047 22.8339 1.4289 22.8941C1.48733 22.9544 1.56053 22.9982 1.64119 23.0213C1.72186 23.0445 1.80718 23.046 1.88865 23.0259L7.15459 21.7209C8.70196 22.547 10.4578 23.04 12.3333 23.04C18.4248 23.04 23.3733 18.0914 23.3733 12C23.3733 5.90854 18.4248 0.959961 12.3333 0.959961ZM12.3333 1.91996C17.9059 1.91996 22.4133 6.42738 22.4133 12C22.4133 17.5725 17.9059 22.08 12.3333 22.08C10.5468 22.08 8.87355 21.6142 7.41896 20.8003C7.31257 20.7408 7.18756 20.7241 7.06927 20.7534L2.45771 21.8962L3.69427 17.4843C3.71197 17.422 3.71685 17.3567 3.70863 17.2924C3.70042 17.2281 3.67927 17.1662 3.64646 17.1103C2.76246 15.6113 2.25333 13.8672 2.25333 12C2.25333 6.42738 6.76076 1.91996 12.3333 1.91996ZM8.32177 6.23996C8.01407 6.23996 7.57464 6.35444 7.21365 6.7434C6.99682 6.97702 6.09333 7.85733 6.09333 9.40496C6.09333 11.0185 7.2124 12.4108 7.34771 12.5896H7.34865V12.5906C7.33581 12.5737 7.52039 12.841 7.76677 13.1615C8.01316 13.482 8.35769 13.903 8.79052 14.3587C9.65619 15.2702 10.8733 16.3235 12.384 16.9678C13.0796 17.264 13.6285 17.4429 14.0443 17.5734C14.8149 17.8154 15.5167 17.7786 16.044 17.7009C16.4386 17.6428 16.8726 17.4533 17.3021 17.1815C17.7315 16.9098 18.1524 16.5718 18.338 16.0584C18.471 15.6903 18.5386 15.3502 18.563 15.0703C18.5752 14.9303 18.5768 14.8068 18.5677 14.6925C18.5586 14.5781 18.5683 14.4905 18.4618 14.3156C18.2383 13.9487 17.9852 13.9391 17.7211 13.8084C17.5744 13.7358 17.1567 13.5318 16.7377 13.3321C16.3192 13.1327 15.9568 12.9561 15.7336 12.8765C15.5926 12.8258 15.4205 12.7528 15.1721 12.7809C14.9237 12.809 14.6784 12.9882 14.5355 13.2C14.4001 13.4006 13.8551 14.044 13.689 14.2331C13.6868 14.2317 13.7012 14.2384 13.6355 14.2059C13.43 14.1042 13.1787 14.0177 12.8068 13.8215C12.4349 13.6253 11.9696 13.3356 11.4605 12.8868V12.8859C10.7028 12.2188 10.172 11.3813 10.0046 11.1C10.0159 11.0865 10.0032 11.1028 10.0271 11.0793L10.028 11.0784C10.1991 10.9098 10.3508 10.7085 10.479 10.5609C10.6607 10.3516 10.7408 10.1671 10.8277 9.99465C11.0008 9.65105 10.9044 9.27296 10.8043 9.07402V9.07309C10.8112 9.08685 10.7501 8.95204 10.6843 8.79652C10.6183 8.64057 10.5341 8.43838 10.4443 8.22277C10.2646 7.79156 10.0639 7.30792 9.94458 7.02465V7.02371C9.80402 6.69005 9.61384 6.44968 9.36521 6.33371C9.11658 6.21774 8.89691 6.25071 8.88802 6.25027H8.88708C8.70966 6.24209 8.51495 6.23996 8.32177 6.23996ZM8.32177 7.19996C8.50683 7.19996 8.68928 7.20222 8.84208 7.20934C8.99928 7.21717 8.9895 7.21781 8.95927 7.20371C8.92856 7.18939 8.97023 7.18474 9.05958 7.39684C9.17642 7.67421 9.37806 8.1596 9.55833 8.59215C9.64847 8.80842 9.73283 9.01139 9.80021 9.17059C9.86759 9.32978 9.90409 9.41866 9.94646 9.5034V9.50434L9.9474 9.50527C9.98894 9.58723 9.98526 9.53476 9.97083 9.5634C9.86954 9.76444 9.8558 9.8138 9.75333 9.93184C9.59733 10.1116 9.43819 10.312 9.35396 10.395C9.28027 10.4674 9.1473 10.5801 9.06427 10.8009C8.98112 11.022 9.01993 11.3254 9.15333 11.5518C9.33095 11.8534 9.91625 12.806 10.8258 13.6068C11.3987 14.1118 11.9323 14.446 12.3586 14.6709C12.785 14.8958 13.1322 15.0271 13.2099 15.0656C13.3944 15.1569 13.596 15.2278 13.8305 15.1996C14.065 15.1715 14.2671 15.0292 14.3958 14.8837L14.3968 14.8828C14.568 14.6886 15.0769 14.1075 15.3211 13.7493C15.3315 13.753 15.3281 13.7502 15.4093 13.7793V13.7803H15.4102C15.4473 13.7935 15.9114 14.0012 16.3252 14.1984C16.739 14.3956 17.159 14.6005 17.2955 14.6681C17.4925 14.7656 17.5855 14.829 17.6096 14.8293C17.6112 14.8716 17.6129 14.9173 17.6068 14.9868C17.5899 15.1796 17.5384 15.4465 17.4352 15.7321C17.3847 15.872 17.1213 16.1604 16.7893 16.3706C16.4572 16.5807 16.053 16.7292 15.9033 16.7512C15.4533 16.8175 14.9189 16.8417 14.3321 16.6575C13.9252 16.5297 13.4178 16.3644 12.7608 16.0846C11.4284 15.5164 10.296 14.5495 9.48708 13.6978C9.08262 13.2719 8.75856 12.8755 8.52802 12.5756C8.29791 12.2762 8.19743 12.1205 8.11365 12.0103L8.11271 12.0093C7.96399 11.8127 7.05333 10.546 7.05333 9.40496C7.05333 8.1974 7.61421 7.72385 7.91771 7.39684C8.07704 7.22516 8.25123 7.19996 8.32177 7.19996Z" stroke="#FF772C" stroke-width="0.6" mask="url(#path-1-outside-1_3102_15032)"/>
</g>
</g>
<defs>
<clipPath id="clip0_3102_15032">
<rect width="24" height="24" fill="white" transform="translate(0.333374)"/>
</clipPath>
</defs>
</svg>
