<svg width="32" height="32" viewBox="0 0 32 32" fill="none" xmlns="http://www.w3.org/2000/svg">
<path d="M6 13.4612V24C6 25.1046 6.89543 26 8 26H10.5C11.6046 26 12.5 25.1046 12.5 24V18.5C12.5 17.3954 13.3954 16.5 14.5 16.5H17.5C18.6046 16.5 19.5 17.3954 19.5 18.5V24C19.5 25.1046 20.3954 26 21.5 26H24C25.1046 26 26 25.1046 26 24V13.4612C26 12.8537 25.7238 12.2791 25.2494 11.8995L17.2494 5.49951C16.519 4.91516 15.481 4.91516 14.7506 5.49951L6.75061 11.8995C6.27618 12.2791 6 12.8537 6 13.4612Z" fill="#FF965C" stroke="#FF965C" stroke-width="1.5" stroke-linecap="round" stroke-linejoin="round"/>
</svg>
