<svg width="32" height="32" viewBox="0 0 32 32" fill="none" xmlns="http://www.w3.org/2000/svg">
<path d="M9.38899 14.7268L9.38903 14.7268L9.42972 14.7095C10.5993 14.213 19.1534 10.5815 19.8921 10.3154C20.3784 10.1401 20.8002 10.0521 21.1802 10.0521C21.5053 10.0521 21.8072 10.116 22.0736 10.2444C22.7888 10.5867 23.1562 11.3271 23.0724 12.2064L23.0724 12.2065C23.0129 12.8268 22.7207 14.8871 22.4089 16.8971C22.2529 17.9027 22.0917 18.8971 21.9521 19.6941C21.8131 20.487 21.6938 21.094 21.6211 21.3175L21.6211 21.3175L21.6193 21.323C21.5232 21.618 21.3708 22.0856 21.0887 22.4799C20.8022 22.8802 20.3762 23.2126 19.7375 23.2126C19.0889 23.2126 18.4346 22.9875 17.846 22.5668C17.4387 22.2765 14.705 20.4448 14.3716 20.2347C13.8363 19.8973 13.4722 19.3449 13.4028 18.7524C13.4028 18.7524 13.4027 18.7523 13.4027 18.7523L9.38899 14.7268ZM9.38899 14.7268L9.38442 14.7287C9.10114 14.8491 8.68307 15.0269 8.33581 15.313C7.9839 15.6029 7.6979 16.01 7.6979 16.5855C7.6979 16.9625 7.80892 17.2907 8.03177 17.5631C8.25346 17.8341 8.58052 18.0434 9.00281 18.1942L9.00288 18.1943M9.38899 14.7268L9.00288 18.1943M9.00288 18.1943C9.44781 18.3528 10.4993 18.6714 11.1089 18.8392L11.1089 18.8392M9.00288 18.1943L11.1089 18.8392M11.1089 18.8392C11.376 18.9126 11.6593 18.9501 11.95 18.9501M11.1089 18.8392L11.95 18.9501M21.5255 11.3871L21.5251 11.3869C21.4313 11.3414 21.3163 11.3188 21.1802 11.3188C20.9417 11.3188 20.65 11.3876 20.3215 11.5066L20.3213 11.5067C19.6059 11.7641 10.4191 15.6653 9.88491 15.8921C9.63295 15.9993 9.39696 16.1075 9.22441 16.2281C9.04862 16.351 8.96561 16.4678 8.96561 16.5855C8.96561 16.6803 8.992 16.7458 9.05402 16.8051C9.1221 16.8702 9.23792 16.9324 9.42941 17.0007C9.83035 17.1435 10.8457 17.4516 11.4464 17.6172C11.6095 17.662 11.7803 17.6824 11.95 17.6824C12.3505 17.6824 12.733 17.5703 12.9743 17.4203L12.9743 17.4203C13.1681 17.2999 14.3941 16.4843 15.6147 15.6638C16.2244 15.254 16.8319 14.8435 17.3072 14.5191C17.7851 14.1928 18.1232 13.9574 18.2001 13.8946C18.2002 13.8946 18.2002 13.8945 18.2002 13.8945L18.2635 13.9719C18.3462 13.9042 18.426 13.8761 18.4927 13.8761C18.6863 13.8761 18.7786 14.1147 18.5812 14.3126L21.5255 11.3871ZM21.5255 11.3871C21.7264 11.4835 21.8475 11.7028 21.8109 12.0864C21.7466 12.7557 21.4534 14.7964 21.1478 16.7585C20.9951 17.7389 20.8396 18.6982 20.7083 19.4551C20.5762 20.2167 20.4703 20.7628 20.4174 20.9254C20.3217 21.219 20.2268 21.4806 20.1117 21.6685C19.9963 21.8568 19.8767 21.9459 19.7375 21.9459C19.3784 21.9459 18.98 21.82 18.5821 21.5354L18.5821 21.5354M21.5255 11.3871L18.5821 21.5354M21.5687 11.2969C21.4578 11.2431 21.3269 11.2188 21.1802 11.2188C20.9247 11.2188 20.6203 11.292 20.2875 11.4126C19.5685 11.6712 10.377 15.5745 9.84582 15.8001L21.5687 11.2969ZM21.5687 11.2969C21.821 11.418 21.9493 11.6879 21.9104 12.0959L21.5687 11.2969ZM18.5821 21.5354C18.1682 21.2398 15.4289 19.4028 15.047 19.1623M18.5821 21.5354L15.047 19.1623M11.95 18.9501C12.4568 18.9501 12.9679 18.8374 13.3931 18.6339L11.95 18.9501ZM15.047 19.1623C15.047 19.1623 15.047 19.1623 15.0471 19.1623L14.9937 19.2469L15.047 19.1623ZM16.3333 3.6334C9.50971 3.6334 3.96665 9.17646 3.96665 16.0001C3.96665 22.8237 9.50971 28.3667 16.3333 28.3667C23.1569 28.3667 28.7 22.8237 28.7 16.0001C28.7 9.17646 23.1569 3.6334 16.3333 3.6334ZM16.3333 4.90007C22.47 4.90007 27.4333 9.86339 27.4333 16.0001C27.4333 22.1367 22.47 27.1001 16.3333 27.1001C10.1966 27.1001 5.23332 22.1367 5.23332 16.0001C5.23332 9.86339 10.1966 4.90007 16.3333 4.90007Z" fill="#FF772C" stroke="#FF772C" stroke-width="0.2"/>
</svg>
