<svg width="27" height="28" viewBox="0 0 27 28" fill="none" xmlns="http://www.w3.org/2000/svg">
<g id="Frame">
<path id="Vector" d="M6.38899 12.7268L6.38903 12.7268L6.42972 12.7095C7.59935 12.213 16.1534 8.58152 16.8921 8.31536C17.3784 8.14012 17.8002 8.05215 18.1802 8.05215C18.5053 8.05215 18.8072 8.11598 19.0736 8.24436C19.7888 8.58672 20.1562 9.32715 20.0724 10.2064L20.0724 10.2065C20.0129 10.8268 19.7207 12.8871 19.4089 14.8971C19.2529 15.9027 19.0917 16.8971 18.9521 17.6941C18.8131 18.487 18.6938 19.094 18.6211 19.3175L18.6211 19.3175L18.6193 19.323C18.5232 19.618 18.3708 20.0856 18.0887 20.4799C17.8022 20.8802 17.3762 21.2126 16.7375 21.2126C16.0889 21.2126 15.4346 20.9875 14.846 20.5668C14.4387 20.2765 11.705 18.4448 11.3716 18.2347C10.8363 17.8973 10.4722 17.3449 10.4028 16.7524C10.4028 16.7524 10.4027 16.7523 10.4027 16.7523L6.38899 12.7268ZM6.38899 12.7268L6.38442 12.7287C6.10114 12.8491 5.68307 13.0269 5.33581 13.313C4.9839 13.6029 4.6979 14.01 4.6979 14.5855C4.6979 14.9625 4.80892 15.2907 5.03177 15.5631C5.25346 15.8341 5.58052 16.0434 6.00281 16.1942L6.00288 16.1943M6.38899 12.7268L6.00288 16.1943M6.00288 16.1943C6.44781 16.3528 7.4993 16.6714 8.10887 16.8392L8.1089 16.8392M6.00288 16.1943L8.1089 16.8392M8.1089 16.8392C8.37604 16.9126 8.65929 16.9501 8.94998 16.9501M8.1089 16.8392L8.94998 16.9501M18.5255 9.38709L18.5251 9.3869C18.4313 9.34139 18.3163 9.31881 18.1802 9.31881C17.9417 9.31881 17.65 9.38763 17.3215 9.50659L17.3213 9.50666C16.6059 9.76406 7.41907 13.6653 6.88491 13.8921C6.63295 13.9993 6.39696 14.1075 6.22441 14.2281C6.04862 14.351 5.96561 14.4678 5.96561 14.5855C5.96561 14.6803 5.992 14.7458 6.05402 14.8051C6.1221 14.8702 6.23792 14.9324 6.42941 15.0007C6.83035 15.1435 7.84572 15.4516 8.44635 15.6172C8.6095 15.662 8.78027 15.6824 8.94998 15.6824C9.35046 15.6824 9.733 15.5703 9.97429 15.4203L9.9743 15.4203C10.1681 15.2999 11.3941 14.4843 12.6147 13.6638C13.2244 13.254 13.8319 12.8435 14.3072 12.5191C14.7851 12.1928 15.1232 11.9574 15.2001 11.8946C15.2002 11.8946 15.2002 11.8945 15.2002 11.8945L15.2635 11.9719C15.3462 11.9042 15.426 11.8761 15.4927 11.8761C15.6863 11.8761 15.7786 12.1147 15.5812 12.3126L18.5255 9.38709ZM18.5255 9.38709C18.7264 9.48351 18.8475 9.70285 18.8109 10.0864C18.7466 10.7557 18.4534 12.7964 18.1478 14.7585C17.9951 15.7389 17.8396 16.6982 17.7083 17.4551C17.5762 18.2167 17.4703 18.7628 17.4174 18.9254C17.3217 19.219 17.2268 19.4806 17.1117 19.6685C16.9963 19.8568 16.8767 19.9459 16.7375 19.9459C16.3784 19.9459 15.98 19.82 15.5821 19.5354L15.5821 19.5354M18.5255 9.38709L15.5821 19.5354M18.5687 9.29694C18.4578 9.24307 18.3269 9.21881 18.1802 9.21881C17.9247 9.21881 17.6203 9.29203 17.2875 9.41256C16.5685 9.67123 7.37702 13.5745 6.84582 13.8001L18.5687 9.29694ZM18.5687 9.29694C18.821 9.41801 18.9493 9.6879 18.9104 10.0959L18.5687 9.29694ZM15.5821 19.5354C15.1682 19.2398 12.4289 17.4028 12.047 17.1623M15.5821 19.5354L12.047 17.1623M8.94998 16.9501C9.45683 16.9501 9.96787 16.8374 10.3931 16.6339L8.94998 16.9501ZM12.047 17.1623C12.047 17.1623 12.047 17.1623 12.0471 17.1623L11.9937 17.2469L12.047 17.1623ZM13.3333 1.6334C6.50971 1.6334 0.96665 7.17646 0.96665 14.0001C0.96665 20.8237 6.50971 26.3667 13.3333 26.3667C20.1569 26.3667 25.7 20.8237 25.7 14.0001C25.7 7.17646 20.1569 1.6334 13.3333 1.6334ZM13.3333 2.90007C19.47 2.90007 24.4333 7.86339 24.4333 14.0001C24.4333 20.1367 19.47 25.1001 13.3333 25.1001C7.19663 25.1001 2.23332 20.1367 2.23332 14.0001C2.23332 7.86339 7.19663 2.90007 13.3333 2.90007Z" fill="#FF772C" stroke="#FF772C" stroke-width="0.2"/>
</g>
</svg>
