<svg width="36" height="36" viewBox="0 0 36 36" fill="none" xmlns="http://www.w3.org/2000/svg">
<g id="House-Icon 1">
<path id="Vector 32" d="M6.75 25.5001V28.5001C6.75 28.9143 7.08579 29.2501 7.5 29.2501H13.1688C13.3711 29.2501 13.5649 29.1684 13.7061 29.0234L29.0373 13.2823C29.1737 13.1423 29.25 12.9545 29.25 12.759V7.50012C29.25 7.08591 28.9142 6.75012 28.5 6.75012H25.5C25.0858 6.75012 24.75 7.08591 24.75 7.50012V10.5001C24.75 10.9143 24.4142 11.2501 24 11.2501H21C20.5858 11.2501 20.25 11.5859 20.25 12.0001V15.0001C20.25 15.4143 19.9142 15.7501 19.5 15.7501H16.5C16.0858 15.7501 15.75 16.0859 15.75 16.5001V19.5001C15.75 19.9143 15.4142 20.2501 15 20.2501H12C11.5858 20.2501 11.25 20.5859 11.25 21.0001V24.0001C11.25 24.4143 10.9142 24.7501 10.5 24.7501H7.5C7.08579 24.7501 6.75 25.0859 6.75 25.5001Z" stroke="#252321" stroke-linecap="square"/>
<path id="Vector 40" d="M7.1861 17.8139L17.9929 7.00708" stroke="#252321" stroke-linecap="round"/>
</g>
</svg>
