<svg width="36" height="36" viewBox="0 0 36 36" fill="none" xmlns="http://www.w3.org/2000/svg">
<g id="House-Icon 1">
<path id="Vector 32" d="M6.75 25.5V28.5C6.75 28.9142 7.08579 29.25 7.5 29.25H13.1688C13.3711 29.25 13.5649 29.1682 13.7061 29.0233L29.0373 13.2822C29.1737 13.1422 29.25 12.9544 29.25 12.7589V7.5C29.25 7.08579 28.9142 6.75 28.5 6.75H25.5C25.0858 6.75 24.75 7.08579 24.75 7.5V10.5C24.75 10.9142 24.4142 11.25 24 11.25H21C20.5858 11.25 20.25 11.5858 20.25 12V15C20.25 15.4142 19.9142 15.75 19.5 15.75H16.5C16.0858 15.75 15.75 16.0858 15.75 16.5V19.5C15.75 19.9142 15.4142 20.25 15 20.25H12C11.5858 20.25 11.25 20.5858 11.25 21V24C11.25 24.4142 10.9142 24.75 10.5 24.75H7.5C7.08579 24.75 6.75 25.0858 6.75 25.5Z" stroke="#252321" stroke-linecap="square"/>
<path id="Vector 40" d="M7.18652 17.8137L17.9933 7.00684" stroke="#252321" stroke-linecap="round"/>
</g>
</svg>
