<svg width="30" height="18" viewBox="0 0 30 18" fill="none" xmlns="http://www.w3.org/2000/svg">
<g id="Frame 156">
<path id="Vector 34" d="M29.5 11.5V16.2501C29.5 16.6643 29.1642 17.0001 28.75 17.0001H28.2373C27.8231 17.0001 27.4873 16.6643 27.4873 16.2501V15.7467C27.4873 15.3325 27.1516 14.9967 26.7373 14.9967H3.91407C3.49985 14.9967 3.16407 15.3325 3.16407 15.7467V15.7667C3.16407 16.181 2.82828 16.5167 2.41407 16.5167H1.75C1.33579 16.5167 1 16.181 1 15.7667V11.5M29.5 11.5V8.75012C29.5 8.33591 29.1642 8.00012 28.75 8.00012H1.75C1.33579 8.00012 1 8.33591 1 8.75012V11.5M29.5 11.5H1" stroke="#252321" stroke-linecap="round"/>
<path id="Vector 35" d="M3.25 7.5V1.75C3.25 1.33579 3.58579 1 4 1H26.6443C27.0586 1 27.3943 1.33579 27.3943 1.75V8" stroke="#252321" stroke-linecap="round"/>
<path id="Vector 36" d="M5.5 7.66323V4.03357C5.5 3.61936 5.83579 3.28357 6.25 3.28357H13C13.4142 3.28357 13.75 3.61936 13.75 4.03357V8.00012" stroke="#252321" stroke-linecap="round"/>
<path id="Vector 37" d="M16.75 7.66323V4.03357C16.75 3.61936 17.0858 3.28357 17.5 3.28357H24.25C24.6642 3.28357 25 3.61936 25 4.03357V8.00012" stroke="#252321" stroke-linecap="round"/>
</g>
</svg>
