<svg width="36" height="36" viewBox="0 0 36 36" fill="none" xmlns="http://www.w3.org/2000/svg">
<path d="M3.99994 28.5H31.9999" stroke="#252321" stroke-linecap="round"/>
<mask id="path-2-inside-1_2435_2006" fill="white">
<path d="M9 17C9 15.8181 9.23279 14.6478 9.68508 13.5558C10.1374 12.4639 10.8003 11.4718 11.636 10.636C12.4718 9.80031 13.4639 9.13738 14.5559 8.68508C15.6478 8.23279 16.8181 8 18 8C19.1819 8 20.3522 8.23279 21.4442 8.68508C22.5361 9.13738 23.5282 9.80031 24.364 10.636C25.1997 11.4718 25.8626 12.4639 26.3149 13.5558C26.7672 14.6478 27 15.8181 27 17L18 17L9 17Z"/>
</mask>
<path d="M9 17C9 15.8181 9.23279 14.6478 9.68508 13.5558C10.1374 12.4639 10.8003 11.4718 11.636 10.636C12.4718 9.80031 13.4639 9.13738 14.5559 8.68508C15.6478 8.23279 16.8181 8 18 8C19.1819 8 20.3522 8.23279 21.4442 8.68508C22.5361 9.13738 23.5282 9.80031 24.364 10.636C25.1997 11.4718 25.8626 12.4639 26.3149 13.5558C26.7672 14.6478 27 15.8181 27 17L18 17L9 17Z" stroke="#252321" stroke-width="2" mask="url(#path-2-inside-1_2435_2006)"/>
<path d="M23.3085 16.6525C23.3085 13.8833 22.0676 11.0857 19.539 8.55713" stroke="#252321"/>
<path d="M12.8082 16.6525C12.8082 13.8833 14.0491 11.0857 16.5777 8.55713" stroke="#252321"/>
<path d="M18 17V26.5" stroke="#252321" stroke-linecap="round"/>
<path d="M15 23H21" stroke="#252321" stroke-linecap="round"/>
<mask id="path-7-inside-2_2435_2006" fill="white">
<path d="M20 28C20 27.4696 19.7893 26.9609 19.4142 26.5858C19.0391 26.2107 18.5304 26 18 26C17.4696 26 16.9609 26.2107 16.5858 26.5858C16.2107 26.9609 16 27.4696 16 28L17 28C17 27.7348 17.1054 27.4804 17.2929 27.2929C17.4804 27.1054 17.7348 27 18 27C18.2652 27 18.5196 27.1054 18.7071 27.2929C18.8946 27.4804 19 27.7348 19 28H20Z"/>
</mask>
<path d="M20 28C20 27.4696 19.7893 26.9609 19.4142 26.5858C19.0391 26.2107 18.5304 26 18 26C17.4696 26 16.9609 26.2107 16.5858 26.5858C16.2107 26.9609 16 27.4696 16 28L17 28C17 27.7348 17.1054 27.4804 17.2929 27.2929C17.4804 27.1054 17.7348 27 18 27C18.2652 27 18.5196 27.1054 18.7071 27.2929C18.8946 27.4804 19 27.7348 19 28H20Z" stroke="#252321" stroke-width="2" mask="url(#path-7-inside-2_2435_2006)"/>
<path d="M24 28V25.6667C24 25.1144 24.4477 24.6667 25 24.6667H28M28 24.6667V28M28 24.6667V20" stroke="#252321" stroke-linecap="round"/>
<path d="M12 28V25.6667C12 25.1144 11.5523 24.6667 11 24.6667H8M8 24.6667V28M8 24.6667V20" stroke="#252321" stroke-linecap="round"/>
</svg>
