<svg width="30" height="18" viewBox="0 0 30 18" fill="none" xmlns="http://www.w3.org/2000/svg">
<g id="Frame 156">
<path id="Vector 34" d="M29.5 11.4999V16.25C29.5 16.6642 29.1642 17 28.75 17H28.2373C27.8231 17 27.4873 16.6642 27.4873 16.25V15.7466C27.4873 15.3324 27.1516 14.9966 26.7373 14.9966H3.91407C3.49985 14.9966 3.16407 15.3324 3.16407 15.7466V15.7666C3.16407 16.1808 2.82828 16.5166 2.41407 16.5166H1.75C1.33579 16.5166 1 16.1808 1 15.7666V11.4999M29.5 11.4999V8.75C29.5 8.33579 29.1642 8 28.75 8H1.75C1.33579 8 1 8.33579 1 8.75V11.4999M29.5 11.4999H1" stroke="#252321" stroke-linecap="round"/>
<path id="Vector 35" d="M3.25 7.5V1.75C3.25 1.33579 3.58579 1 4 1H26.6443C27.0586 1 27.3943 1.33579 27.3943 1.75V8" stroke="#252321" stroke-linecap="round"/>
<path id="Vector 36" d="M5.5 7.66335V4.03369C5.5 3.61948 5.83579 3.28369 6.25 3.28369H13C13.4142 3.28369 13.75 3.61948 13.75 4.03369V8.00024" stroke="#252321" stroke-linecap="round"/>
<path id="Vector 37" d="M16.75 7.66335V4.03369C16.75 3.61948 17.0858 3.28369 17.5 3.28369H24.25C24.6642 3.28369 25 3.61948 25 4.03369V8.00024" stroke="#252321" stroke-linecap="round"/>
</g>
</svg>
