<svg width="92" height="92" viewBox="0 0 92 92" fill="none" xmlns="http://www.w3.org/2000/svg">
<path d="M79.2223 33.2223C79.2223 26.6515 77.2739 20.2283 73.6234 14.765C69.9729 9.3016 64.7843 5.04342 58.7137 2.52891C52.6431 0.0143947 45.9632 -0.643517 39.5188 0.638371C33.0743 1.92026 27.1546 5.08437 22.5084 9.73059C17.8622 14.3768 14.6981 20.2964 13.4162 26.7409C12.1343 33.1854 12.7922 39.8653 15.3067 45.9359C17.8213 52.0064 22.0794 57.195 27.5428 60.8456C33.0062 64.4961 39.4294 66.4445 46.0001 66.4445C50.3629 66.4445 54.683 65.5852 58.7137 63.9156C62.7444 62.246 66.4068 59.7989 69.4918 56.7139C72.5767 53.629 75.0239 49.9666 76.6935 45.9359C78.363 41.9052 79.2223 37.5851 79.2223 33.2223ZM64.4292 31.5013C64.3226 27.7304 63.8 23.9827 62.8709 20.3266C65.5692 19.7851 68.198 18.9416 70.7076 17.812C73.2926 21.9349 74.7959 26.6432 75.0784 31.5013H64.4292ZM60.8313 31.5013H47.789V21.9365C51.6555 21.8763 55.5135 21.5561 59.337 20.9781C60.2279 24.4187 60.7291 27.9486 60.8313 31.5013ZM47.789 18.3206V5.21701C51.7123 6.17291 54.5321 10.0769 55.9567 12.5314C56.8638 14.1207 57.6319 15.7854 58.2525 17.5069C54.7846 17.9926 51.2902 18.2644 47.789 18.3206ZM44.2112 5.21701V18.3206C40.71 18.2644 37.2155 17.9926 33.7477 17.5069C34.3683 15.7854 35.1364 14.1207 36.0435 12.5314C37.4681 10.0769 40.288 6.17291 44.2112 5.21701ZM44.2112 21.9365V31.5012H31.1689C31.2711 27.9486 31.7724 24.4187 32.6633 20.9781C36.4867 21.5561 40.3448 21.8763 44.2112 21.9365ZM27.5711 31.5013H16.9218C17.2043 26.6432 18.7076 21.9349 21.2926 17.812C23.8022 18.9416 26.4311 19.7851 29.1294 20.3266C28.2002 23.9827 27.6776 27.7304 27.5711 31.5013ZM27.5771 35.079C27.6912 38.8042 28.2117 42.5058 29.1294 46.118C26.4311 46.6594 23.8022 47.5029 21.2926 48.6325C18.7328 44.5485 17.2339 39.8896 16.9322 35.079H27.5771ZM31.1727 35.079H44.2112V44.508C40.3448 44.5682 36.4867 44.8883 32.6633 45.4664C31.7831 42.0699 31.2832 38.586 31.1727 35.079ZM44.2112 48.1239V61.2275C40.288 60.2716 37.4681 56.3676 36.0435 53.9131C35.1364 52.3238 34.3683 50.6591 33.7477 48.9376C37.2155 48.4519 40.71 48.1802 44.2112 48.1239ZM47.789 61.2275V48.1239C51.2902 48.1802 54.7846 48.4519 58.2525 48.9376C57.6319 50.6591 56.8638 52.3238 55.9567 53.9131C54.5321 56.3676 51.7123 60.2716 47.789 61.2275ZM47.789 44.508V35.0791H60.8276C60.717 38.586 60.2171 42.0699 59.337 45.4664C55.5135 44.8884 51.6555 44.5682 47.789 44.508ZM64.4232 35.0791H75.068C74.7663 39.8895 73.2674 44.5484 70.7076 48.6325C68.198 47.5028 65.5692 46.6593 62.8709 46.118C63.7886 42.5058 64.3091 38.8042 64.4232 35.0791ZM68.5928 14.8544C66.4157 15.7601 64.152 16.4412 61.8366 16.8873C60.479 12.6439 58.1716 8.76602 55.0897 5.54864C60.3865 7.29848 65.0719 10.5275 68.5928 14.8544ZM36.9106 5.54864C33.8287 8.766 31.5212 12.6439 30.1636 16.8872C27.8483 16.4412 25.5845 15.7601 23.4074 14.8544C26.9283 10.5275 31.6138 7.29852 36.9106 5.54864ZM23.4074 51.5901C25.5845 50.6844 27.8483 50.0033 30.1636 49.5573C31.5212 53.8007 33.8287 57.6785 36.9106 60.8959C31.6138 59.146 26.9283 55.917 23.4074 51.5901ZM55.0897 60.8959C58.1715 57.6785 60.479 53.8007 61.8366 49.5573C64.1519 50.0033 66.4157 50.6845 68.5927 51.5902C65.0719 55.917 60.3865 59.146 55.0897 60.8959Z" fill="#FF965C"/>
<path d="M32.5387 68.5522C26.0571 64.594 22.5821 65.6542 19.1617 62.7325C15.3211 59.4518 12.3594 65.1394 20.4676 69.3364C28.8525 73.6768 14.3448 72.6978 10.5349 66.7001C3.00963 54.8541 -1.86761 56.2473 0.68361 60.0278C3.18626 63.7365 4.13992 68.7048 6.0789 71.129C7.71977 73.1397 9.65464 74.8913 11.8182 76.3247C17.9916 80.8859 22.6075 83.5011 29.6349 84.2889C30.4361 84.3787 30.7621 90.069 30.9512 92H42.8148C42.8148 83.0731 36.8114 71.1616 32.5387 68.5522Z" fill="#C6B9B1"/>
<path d="M81.4653 66.7002C77.6553 72.6979 63.1476 73.6768 71.5325 69.3365C79.6406 65.1394 76.679 59.4518 72.8384 62.7325C69.418 65.6543 65.943 64.594 59.4613 68.5523C55.1887 71.1616 49.1853 83.0731 49.1853 92H61.049C61.238 90.069 61.564 84.3787 62.3652 84.2889C69.3926 83.5011 74.0084 80.8859 80.1819 76.3247C82.3454 74.8913 84.2803 73.1397 85.9212 71.129C87.8602 68.7048 88.8138 63.7365 91.3165 60.0278C93.8677 56.2473 88.9905 54.8541 81.4653 66.7002Z" fill="#C6B9B1"/>
</svg>
