<svg width="72" height="92" viewBox="0 0 72 92" fill="none" xmlns="http://www.w3.org/2000/svg">
<path d="M71.3549 26.4788C72.0198 32.4804 70.9596 38.8414 68.9471 44.7353C66.5752 51.6713 62.8916 57.9963 59.1361 62.4167C59.1181 62.4346 51.9485 70.6285 60.9869 82.9731C61.5439 83.7278 61.9392 84.2848 62.2986 84.9317C62.658 85.5786 62.9635 86.2435 63.2869 87.1599L64.3291 90.0888C64.5986 90.8435 64.2033 91.6521 63.4486 91.9216C63.251 91.9935 63.0353 92.0115 62.8197 91.9935L28.0319 91.706C27.2413 91.706 26.5944 91.0591 26.6123 90.2505C26.6123 90.1427 26.6303 90.0529 26.6483 89.963C26.828 88.6872 28.4092 76.8277 27.5647 76.702C27.1694 76.6481 25.8936 76.8098 24.2764 77.0434C20.9342 77.5106 16.3162 78.1395 12.9739 77.3309C9.64968 76.5402 7.56529 74.5457 8.58952 70.2691C9.12858 68.023 8.12232 66.5675 7.18794 65.2198C5.75043 63.1354 4.45667 61.2667 6.36137 58.0502L6.32543 56.7026C4.2051 56.1994 0.000374705 54.9236 0.485535 52.6236C0.665225 51.815 1.72539 49.0658 3.14494 46.1548C4.11526 44.1602 5.26527 42.0399 6.41528 40.3688C6.95435 39.5961 7.31372 39.093 7.60123 38.7157C7.69107 38.6078 7.76295 38.5539 7.81685 38.536C7.3856 37.9789 6.77466 37.0086 6.18168 35.068C5.80433 33.882 5.58871 32.6242 5.51683 31.3125C5.17542 25.7601 7.40357 19.3811 11.5185 13.8287C15.6154 8.33022 21.617 3.62236 28.8585 1.39422C31.1585 0.675459 33.6022 0.226236 36.1359 0.0645156C44.4016 -0.456583 53.0806 2.20282 59.765 7.18021C65.9822 11.8162 70.4745 18.4647 71.3549 26.4788ZM66.2338 43.8188C68.1205 38.2844 69.1268 32.3547 68.5159 26.7843C67.7252 19.6327 63.6642 13.667 58.0579 9.4982C51.9126 4.91612 43.9164 2.47235 36.3156 2.93954C34.0155 3.08329 31.8054 3.49658 29.721 4.14346C23.1084 6.19192 17.6099 10.5045 13.8544 15.5537C10.1169 20.5671 8.10436 26.2812 8.40983 31.1507C8.4817 32.2289 8.66139 33.2531 8.9489 34.2234C9.5239 36.0922 10.045 36.7211 10.3145 37.0446C10.638 37.4399 10.8536 37.6914 10.8895 38.2125C10.8895 38.2664 10.9075 38.3383 10.9075 38.4102C10.9075 39.093 10.638 39.4883 9.93719 40.4227C9.64968 40.818 9.25437 41.3571 8.80514 42.0219C7.74498 43.5493 6.66684 45.5439 5.75043 47.4306C4.4387 50.1439 3.46838 52.5877 3.32462 53.2346C3.30666 53.3424 7.25982 54.0072 7.9067 54.115C8.62545 54.1869 9.18249 54.7799 9.20046 55.5166L9.25437 58.3018C9.29031 58.6252 9.21843 58.9487 9.03874 59.2362C7.85279 61.087 8.66139 62.2729 9.57781 63.6026C10.8536 65.4354 12.2372 67.4659 11.4106 70.9519C10.8895 73.1441 11.9677 74.1683 13.6747 74.5816C16.4958 75.2645 20.8263 74.6535 23.935 74.2223C25.7678 73.9707 27.2233 73.773 28.0499 73.8988C31.0327 74.366 30.1702 84.8059 29.721 88.8849L60.9689 89.1365L60.6095 88.1302C60.34 87.3575 60.1064 86.8364 59.8369 86.3513C59.5494 85.8661 59.208 85.363 58.7048 84.6802C48.3008 70.4847 56.9439 60.6018 56.9798 60.5838C60.5197 56.4151 64.0236 50.4134 66.2518 43.8368L66.2338 43.8188Z" fill="#C6B9B1"/>
<path d="M25.9115 51.1142C25.2647 49.4611 19.3888 33.3969 32.1288 24.2687C32.1827 24.2327 32.2366 24.1968 32.3085 24.1608C33.3866 23.496 42.964 17.8358 52.5055 19.2733C53.2962 19.3991 53.8352 20.1178 53.7094 20.9085C53.6555 21.2678 53.4759 21.5554 53.2243 21.771C52.7212 22.2921 49.0016 26.5148 49.6485 36.2539C49.6485 36.3078 49.6485 36.3617 49.6485 36.4157C50.1157 49.4072 43.4312 52.2642 36.046 52.5697C33.5304 52.6596 31.0327 52.4619 28.7327 52.2642C28.1397 52.2103 27.5647 52.1564 27.1873 52.1385C26.5764 52.0846 26.0733 51.6713 25.9115 51.0963V51.1142ZM33.764 26.6226C23.8092 33.7563 27.1873 46.0829 28.3194 49.3533C28.553 49.3712 28.7506 49.3892 28.9662 49.4072C31.2124 49.6048 33.6561 49.8025 35.9382 49.7127C41.832 49.4791 47.1867 47.1431 46.7914 36.5235C46.7914 36.5055 46.7914 36.4875 46.7914 36.4516C46.3063 29.1203 48.175 24.4124 49.6485 21.9147C41.9218 21.753 34.6804 26.0656 33.8179 26.5866L33.7999 26.6046L33.764 26.6226Z" fill="#FF965C"/>
<path d="M41.4187 31.7437C42.1734 31.5101 42.6047 30.7015 42.3711 29.9468C42.1375 29.1921 41.3289 28.7609 40.5742 28.9945C40.5562 28.9945 32.3983 31.3484 25.9475 50.2337C25.6959 50.9884 26.0912 51.797 26.8459 52.0486C27.6006 52.3002 28.4092 51.9049 28.6608 51.1502C34.6265 33.6484 41.4007 31.7258 41.4187 31.7258V31.7437Z" fill="#FF965C"/>
</svg>
