<svg width="82" height="92" viewBox="0 0 82 92" fill="none" xmlns="http://www.w3.org/2000/svg">
<path d="M75.1306 57.0431V34.9472C78.9607 34.3347 81.9062 31.0199 81.9062 27.0148C81.9062 22.582 78.2997 18.9755 73.8669 18.9755C71.3491 18.9755 69.1035 20.142 67.6259 21.9501L48.4949 10.907C48.8352 10.0127 49.0296 9.0503 49.0296 8.03931C49.0393 3.60651 45.4328 0 41 0C36.5672 0 32.9607 3.60651 32.9607 8.03931C32.9607 9.0503 33.1551 10.0127 33.4953 10.907L14.3643 21.9501C12.8867 20.1323 10.6412 18.9755 8.12341 18.9755C3.69062 18.9755 0.0841064 22.582 0.0841064 27.0148C0.0841064 31.0199 3.02958 34.3347 6.85968 34.9472V57.0431C3.02958 57.6555 0.0841064 60.9704 0.0841064 64.9755C0.0841064 69.4083 3.69062 73.0148 8.12341 73.0148C10.6412 73.0148 12.8867 71.8483 14.3643 70.0402L33.4953 81.093C33.1551 81.9873 32.9607 82.9497 32.9607 83.9607C32.9607 88.3935 36.5672 92 41 92C45.4328 92 49.0393 88.3935 49.0393 83.9607C49.0393 82.9497 48.8449 81.9776 48.5047 81.093L67.6357 70.0499C69.1133 71.8677 71.3588 73.0245 73.8766 73.0245C78.3094 73.0245 81.9159 69.418 81.9159 64.9852C81.9159 60.9801 78.9704 57.6653 75.1403 57.0528L75.1306 57.0431ZM73.8669 21.503C76.9095 21.503 79.3787 23.9721 79.3787 27.0148C79.3787 30.0575 76.9095 32.5266 73.8669 32.5266C70.8242 32.5266 68.355 30.0575 68.355 27.0148C68.355 23.9721 70.8242 21.503 73.8669 21.503ZM41 2.51775C44.0427 2.51775 46.5118 4.9869 46.5118 8.02959C46.5118 11.0723 44.0427 13.5414 41 13.5414C37.9573 13.5414 35.4882 11.0723 35.4882 8.02959C35.4882 4.9869 37.9573 2.51775 41 2.51775ZM2.61158 27.0148C2.61158 23.9721 5.08073 21.503 8.12341 21.503C11.1661 21.503 13.6352 23.9721 13.6352 27.0148C13.6352 30.0575 11.1661 32.5266 8.12341 32.5266C5.08073 32.5266 2.61158 30.0575 2.61158 27.0148ZM8.12341 70.4873C5.08073 70.4873 2.61158 68.0182 2.61158 64.9755C2.61158 61.9328 5.08073 59.4637 8.12341 59.4637C11.1661 59.4637 13.6352 61.9328 13.6352 64.9755C13.6352 68.0182 11.1661 70.4873 8.12341 70.4873ZM41 89.4628C37.9573 89.4628 35.4882 86.9937 35.4882 83.951C35.4882 80.9083 37.9573 78.4391 41 78.4391C44.0427 78.4391 46.5118 80.9083 46.5118 83.951C46.5118 86.9937 44.0427 89.4628 41 89.4628ZM47.2409 78.896C45.7633 77.0782 43.5177 75.9214 41 75.9214C38.4823 75.9214 36.2367 77.0879 34.7591 78.896L15.6281 67.8432C15.9683 66.9489 16.1627 65.9865 16.1627 64.9755C16.1627 60.9704 13.2172 57.6555 9.38715 57.0431V34.9472C13.2172 34.3347 16.1627 31.0199 16.1627 27.0148C16.1627 26.0038 15.9683 25.0317 15.6183 24.1471L34.7494 13.104C36.227 14.9218 38.4725 16.0883 40.9903 16.0883C43.508 16.0883 45.7536 14.9218 47.2312 13.1137L66.3622 24.1568C66.022 25.0511 65.8178 26.0135 65.8178 27.0245C65.8178 31.0296 68.7633 34.3445 72.5934 34.9569V57.0528C68.7633 57.6653 65.8178 60.9801 65.8178 64.9852C65.8178 65.9962 66.0123 66.9683 66.3525 67.8529L47.2215 78.896H47.2409ZM73.8766 70.4873C70.8339 70.4873 68.3648 68.0182 68.3648 64.9755C68.3648 61.9328 70.8339 59.4637 73.8766 59.4637C76.9193 59.4637 79.3884 61.9328 79.3884 64.9755C79.3884 68.0182 76.9193 70.4873 73.8766 70.4873Z" fill="#C6B9B1"/>
<path fill-rule="evenodd" clip-rule="evenodd" d="M41.0098 43.8129C46.5508 43.8129 51.0613 39.2926 51.0613 33.7419C51.0613 28.1911 46.5508 23.6611 41.0098 23.6611C35.4688 23.6611 30.9485 28.1814 30.9485 33.7419C30.9485 39.3023 35.459 43.8129 41.0098 43.8129ZM48.5436 33.7419C48.5436 29.5715 45.1607 26.1886 41.0098 26.1886C36.8589 26.1886 33.476 29.5715 33.476 33.7419C33.476 37.9122 36.8492 41.2951 41.0098 41.2951C45.1704 41.2951 48.5436 37.9122 48.5436 33.7419Z" fill="#FF965C"/>
<path fill-rule="evenodd" clip-rule="evenodd" d="M58.0799 37.0179C57.1175 36.4638 56.0191 36.2693 54.9984 36.4832C53.8318 36.7165 52.8306 37.465 52.189 38.5927L48.67 44.7072C48.4172 45.1544 48.0089 45.3877 47.5034 45.3877H34.5258C34.0203 45.3877 33.612 45.1544 33.3496 44.7072L29.8306 38.5927C29.0334 37.2026 27.7114 36.4054 26.2046 36.4054C24.6104 36.4054 23.0647 37.2998 22.2676 38.6802C21.5093 39.9828 21.5385 41.5381 22.3356 42.9283L29.7333 55.7795C30.4819 57.0821 30.8221 58.3361 30.8221 59.8429L30.7929 63.6924C30.7929 64.5284 31.1332 65.7338 32.8052 66.7157C34.6716 67.8044 37.831 68.3488 40.9903 68.3488C44.1302 68.3488 47.2701 67.8141 49.1366 66.7351C50.8377 65.7533 51.1974 64.5479 51.1974 63.7021V59.8429C51.1974 58.3361 51.5279 57.0821 52.2862 55.7795L59.6936 42.9283C61.1032 40.4785 59.9561 38.1066 58.0896 37.0276L58.0799 37.0179ZM50.0892 54.506L57.4967 41.6548L57.5064 41.6645C58.1674 40.5272 57.555 39.6328 56.8259 39.2148C56.4079 38.9621 55.9219 38.8746 55.5038 38.9621C55.0372 39.0593 54.6581 39.3606 54.3762 39.8564L50.8572 45.9709C50.1573 47.1861 48.9033 47.9152 47.5034 47.9152H34.5258C33.1163 47.9152 31.8623 47.1861 31.1623 45.9709L27.6433 39.8564C27.2934 39.244 26.8073 38.9329 26.2046 38.9329C25.5144 38.9329 24.7951 39.3509 24.4451 39.9439C24.1437 40.4688 24.1729 41.0521 24.5229 41.6645L31.9206 54.5157C32.883 56.1975 33.3399 57.8987 33.3399 59.8526L33.3107 63.7119C33.3107 64.0424 33.8356 64.3923 34.0689 64.5284C37.0144 66.249 44.8885 66.2588 47.8728 64.5381C48.1159 64.402 48.67 64.0424 48.67 63.6924V59.8332C48.67 57.889 49.1171 56.1975 50.0892 54.506Z" fill="#FF965C"/>
</svg>
