<svg width="24" height="23" viewBox="0 0 24 23" fill="none" xmlns="http://www.w3.org/2000/svg">
<g id="CALL">
<path id="Vector 54" d="M6.25238 1.90985C5.68508 2.22812 5.26403 2.50153 4.62007 3.02702C4.11282 3.44095 3.8239 4.07015 3.87624 4.72276C4.37622 10.9559 9.25103 18.0352 13.6743 21.2243C14.2581 21.6451 15.0259 21.7024 15.6761 21.394C16.5919 20.9596 17.0477 20.6294 17.6888 20.1169C18.5933 19.394 18.8369 18.1037 18.2424 17.11L17.3535 15.624C16.772 14.6518 15.5041 14.3493 14.5462 14.954C13.8966 15.3642 13.0606 15.382 12.4475 14.919C10.506 13.4527 9.34876 11.6318 8.69144 9.17601C8.47683 8.37422 8.79801 7.5367 9.4422 7.01329L9.5892 6.89386C10.4862 6.16507 10.692 4.87852 10.0672 3.90625L9.27971 2.68085C8.63115 1.67162 7.29863 1.32287 6.25238 1.90985Z" stroke="#FF772C" stroke-width="1.5"/>
<path id="Vector 55" d="M14.6564 6.05066C16.9059 6.34712 18.2079 8.04442 17.862 10.6688" stroke="#FF772C" stroke-width="1.5" stroke-linecap="round"/>
<path id="Vector 56" d="M16.087 2C20.1361 2.53363 22.4402 5.8887 21.7485 11.1375" stroke="#FF772C" stroke-width="1.5" stroke-linecap="round"/>
</g>
</svg>
