<svg width="24" height="24" viewBox="0 0 24 24" fill="none" xmlns="http://www.w3.org/2000/svg">
<g id="Icon Menu">
<path id="Vector 54" d="M7.97459 5.62928C7.86281 5.70181 7.75084 5.77943 7.63093 5.86836C7.02346 6.3189 6.69403 7.06062 6.78873 7.81098C7.30412 11.8948 10.3211 16.3853 13.2169 18.7085C13.9158 19.2691 14.8913 19.3655 15.6668 18.9169C15.8512 18.8103 16.0099 18.7049 16.1679 18.5897C17.0571 17.9411 17.2619 16.6807 16.6969 15.7362L16.3162 15.0997C15.9031 14.4091 15.0023 14.1941 14.3219 14.6238C13.8603 14.9152 13.2664 14.9278 12.8309 14.5989C11.4653 13.5676 10.6459 12.2893 10.1765 10.5709C10.0124 9.9702 10.2541 9.34131 10.7374 8.94861C11.4104 8.40181 11.5649 7.43653 11.0961 6.70706L10.8672 6.35085C10.2453 5.38312 8.93958 5.00315 7.97459 5.62928Z" stroke="#252321"/>
</g>
</svg>
