<svg width="153" height="41" viewBox="0 0 153 41" fill="none" xmlns="http://www.w3.org/2000/svg">
<g clip-path="url(#clip0_4066_1570)">
<path d="M32.8283 30.9995C27.9457 30.9995 24.7601 27.8735 24.7601 23.1695C24.7601 18.4656 27.9457 15.3395 32.8283 15.3395C37.7109 15.3395 40.8965 18.4656 40.8965 23.1695C40.8965 27.9033 37.7109 30.9995 32.8283 30.9995ZM32.8283 27.5758C35.1803 27.5758 36.6391 25.7597 36.6391 23.1695C36.6391 20.5794 35.1803 18.7633 32.8283 18.7633C30.4763 18.7633 29.0473 20.5794 29.0473 23.1695C29.0473 25.7597 30.4763 27.5758 32.8283 27.5758Z" fill="#252321"/>
<path d="M52.2279 23.1695V15.5182H56.4258V30.8209H52.7043L52.3172 28.9751C51.3348 30.1659 49.995 30.9995 47.8217 30.9995C44.6659 30.9995 41.7482 29.4216 41.7482 24.0032V15.5182H45.9461V23.4375C45.9461 26.1765 46.8392 27.5162 48.9233 27.5162C51.0073 27.5162 52.2279 25.9979 52.2279 23.1695Z" fill="#252321"/>
<path d="M57.4389 25.7299H61.4284C61.5772 27.0697 62.7383 27.9926 64.7926 27.9926C66.5491 27.9926 67.6209 27.4269 67.6209 26.3551C67.6209 25.1047 66.5789 25.0154 64.1078 24.6879C60.5352 24.2711 57.7664 23.4673 57.7664 20.3115C57.7664 17.2747 60.4161 15.28 64.346 15.3098C68.4545 15.3098 71.2829 17.1259 71.4913 20.2519H67.4721C67.353 19.0313 66.1919 18.287 64.4949 18.287C62.8574 18.287 61.7856 18.8824 61.7856 19.8649C61.7856 21.026 63.0956 21.1451 65.2987 21.413C68.8118 21.7703 71.7294 22.5741 71.7294 26.0276C71.7294 29.0644 68.8713 30.9995 64.7628 30.9995C60.5054 30.9995 57.6176 29.0048 57.4389 25.7299Z" fill="#252321"/>
<path d="M80.3119 30.9995C75.2209 30.9995 72.1544 27.933 72.1544 23.1993C72.1544 18.4358 75.2804 15.3395 80.0141 15.3395C84.599 15.3395 87.6953 18.1976 87.7548 22.6932C87.7548 23.1398 87.7251 23.6459 87.6357 24.1222H76.5308V24.3307C76.6202 26.504 78.0194 27.814 80.1332 27.814C81.8302 27.814 83.0211 27.0697 83.3784 25.6406H87.5167C87.0403 28.6178 84.3906 30.9995 80.3119 30.9995ZM76.6202 21.3832H83.5272C83.2295 19.5076 81.9493 18.4656 80.0439 18.4656C78.2278 18.4656 76.8583 19.5672 76.6202 21.3832Z" fill="#252321"/>
<path fill-rule="evenodd" clip-rule="evenodd" d="M13.6432 13.196L21.2692 20.8221L18.8277 23.2636L13.6432 18.079L4.6644 27.0578L2.2229 24.6163L13.6432 13.196Z" fill="#252321"/>
<path fill-rule="evenodd" clip-rule="evenodd" d="M6.62915 27.6756V30.821H11.0949V23.2098L6.62915 27.6756ZM6.62915 17.6278L11.0949 13.162V9.98071H6.62915V17.6278ZM19.3715 25.3023V30.821H23.8373V20.8365L19.3715 25.3023ZM23.8373 20.8079L19.3715 16.3421V9.98071H23.8373V20.8079Z" fill="#252321"/>
</g>
<path d="M94.0975 13.6724H93.2668L94.6387 9.92119H95.6033L96.9645 13.6724H96.1017L95.8123 12.8525H94.3869L94.0975 13.6724ZM95.0942 10.7786L94.6012 12.2041H95.5926L95.0942 10.7786Z" fill="#252321"/>
<path d="M98.9165 13.6724V9.92119H100.444C101.269 9.92119 101.821 10.4089 101.821 11.1698C101.821 11.6521 101.569 12.038 101.178 12.2255L101.917 13.6724H101.028L100.396 12.4131H99.7203V13.6724H98.9165ZM100.379 10.5911H99.7203V11.7432H100.379C100.76 11.7432 101.001 11.5182 101.001 11.1698C101.001 10.8161 100.76 10.5911 100.379 10.5911Z" fill="#252321"/>
<path d="M105.55 13.7046C104.435 13.7046 103.76 12.949 103.76 11.7968C103.76 10.6446 104.462 9.88904 105.598 9.88904C106.488 9.88904 107.115 10.4464 107.211 11.2609H106.397C106.3 10.8429 106 10.5696 105.555 10.5696C104.944 10.5696 104.58 11.0734 104.58 11.7968C104.58 12.5149 104.939 13.024 105.545 13.024C106 13.024 106.3 12.7507 106.397 12.3327H107.206C107.115 13.1473 106.466 13.7046 105.55 13.7046Z" fill="#252321"/>
<path d="M109.27 13.6724V9.92119H110.074V11.4271H111.564V9.92119H112.368V13.6724H111.564V12.1237H110.074V13.6724H109.27Z" fill="#252321"/>
<path d="M114.614 13.6724V9.92119H115.418V13.6724H114.614Z" fill="#252321"/>
<path d="M117.447 10.6125V9.92119H120.421V10.6125H119.333V13.6724H118.529V10.6125H117.447Z" fill="#252321"/>
<path d="M122.456 13.6724V9.92119H124.975V10.6125H123.26V11.4538H124.653V12.113H123.26V12.9811H125.034V13.6724H122.456Z" fill="#252321"/>
<path d="M128.671 13.7046C127.556 13.7046 126.881 12.949 126.881 11.7968C126.881 10.6446 127.583 9.88904 128.719 9.88904C129.609 9.88904 130.236 10.4464 130.332 11.2609H129.518C129.421 10.8429 129.121 10.5696 128.676 10.5696C128.065 10.5696 127.701 11.0734 127.701 11.7968C127.701 12.5149 128.06 13.024 128.665 13.024C129.121 13.024 129.421 12.7507 129.518 12.3327H130.327C130.236 13.1473 129.587 13.7046 128.671 13.7046Z" fill="#252321"/>
<path d="M131.993 10.6125V9.92119H134.968V10.6125H133.88V13.6724H133.076V10.6125H131.993Z" fill="#252321"/>
<path d="M136.976 12.054V9.92119H137.78V12.0969C137.78 12.6918 137.999 13.0133 138.514 13.0133C139.034 13.0133 139.253 12.6918 139.253 12.0969V9.92119H140.057V12.054C140.057 13.1205 139.527 13.7046 138.514 13.7046C137.506 13.7046 136.976 13.1205 136.976 12.054Z" fill="#252321"/>
<path d="M142.279 13.6724V9.92119H143.806C144.631 9.92119 145.183 10.4089 145.183 11.1698C145.183 11.6521 144.931 12.038 144.54 12.2255L145.28 13.6724H144.39L143.758 12.4131H143.083V13.6724H142.279ZM143.742 10.5911H143.083V11.7432H143.742C144.122 11.7432 144.363 11.5182 144.363 11.1698C144.363 10.8161 144.122 10.5911 143.742 10.5911Z" fill="#252321"/>
<path d="M147.304 13.6724V9.92119H149.823V10.6125H148.108V11.4538H149.501V12.113H148.108V12.9811H149.882V13.6724H147.304Z" fill="#252321"/>
<path d="M94.9335 24.1521H93.5669V20.4009H94.9335C96.1017 20.4009 96.8788 21.1672 96.8788 22.2712C96.8788 23.3697 96.1017 24.1521 94.9335 24.1521ZM94.3708 21.0708V23.4823H94.9335C95.6516 23.4823 96.0535 22.9839 96.0535 22.2712C96.0535 21.5531 95.6516 21.0708 94.9335 21.0708H94.3708Z" fill="#252321"/>
<path d="M98.974 24.1521V20.4009H101.493V21.0922H99.7779V21.9335H101.171V22.5927H99.7779V23.4608H101.552V24.1521H98.974Z" fill="#252321"/>
<path d="M103.493 22.9196L104.281 22.9303C104.308 23.2947 104.597 23.5466 105.058 23.5466C105.428 23.5466 105.701 23.3858 105.701 23.0911C105.701 22.7749 105.396 22.7106 104.769 22.5873C104.136 22.4694 103.579 22.2658 103.579 21.5048C103.579 20.8403 104.131 20.3687 104.978 20.3687C105.862 20.3687 106.424 20.8296 106.435 21.5477H105.647C105.61 21.2315 105.369 21.0118 104.978 21.0118C104.635 21.0118 104.388 21.1565 104.388 21.4459C104.388 21.7513 104.683 21.8156 105.304 21.9335C105.948 22.0514 106.516 22.2444 106.51 23C106.505 23.702 105.926 24.1843 105.047 24.1843C104.093 24.1843 103.499 23.6806 103.493 22.9196Z" fill="#252321"/>
<path d="M108.6 24.1521V20.4009H109.404V24.1521H108.6Z" fill="#252321"/>
<path d="M113.282 24.1843C112.21 24.1843 111.497 23.4287 111.497 22.2765C111.497 21.1243 112.204 20.3687 113.357 20.3687C114.262 20.3687 114.9 20.9261 114.996 21.7353H114.193C114.096 21.3226 113.796 21.0493 113.335 21.0493C112.708 21.0493 112.317 21.5531 112.317 22.2765C112.317 23 112.692 23.5037 113.335 23.5037C113.764 23.5037 114.198 23.2786 114.273 22.7535V22.7052H113.34V22.0675H115.018V24.1521H114.455L114.375 23.702C114.176 23.9646 113.812 24.1843 113.282 24.1843Z" fill="#252321"/>
<path d="M118.056 24.1521H117.269V20.4009H117.998L119.589 22.7642V20.4009H120.382V24.1521H119.648L118.056 21.7889V24.1521Z" fill="#252321"/>
<path d="M95.2068 18.9445C94.0921 18.9445 93.4169 18.1889 93.4169 17.0367C93.4169 15.8845 94.1189 15.1289 95.255 15.1289C96.1446 15.1289 96.7716 15.6862 96.868 16.5008H96.0535C95.957 16.0828 95.6569 15.8095 95.2121 15.8095C94.6012 15.8095 94.2368 16.3132 94.2368 17.0367C94.2368 17.7548 94.5958 18.2639 95.2014 18.2639C95.6569 18.2639 95.957 17.9906 96.0535 17.5726H96.8627C96.7716 18.3871 96.1231 18.9445 95.2068 18.9445Z" fill="#FF965C"/>
<path d="M102.459 17.0367C102.459 18.1299 101.704 18.9445 100.6 18.9445C99.4958 18.9445 98.7402 18.1299 98.7402 17.0367C98.7402 15.9435 99.4958 15.1289 100.6 15.1289C101.704 15.1289 102.459 15.9435 102.459 17.0367ZM99.5601 17.0367C99.5601 17.7441 99.9674 18.2639 100.6 18.2639C101.227 18.2639 101.634 17.7441 101.634 17.0367C101.634 16.3293 101.227 15.8095 100.6 15.8095C99.9674 15.8095 99.5601 16.3293 99.5601 17.0367Z" fill="#FF965C"/>
<path d="M105.342 18.9123H104.554V15.1611H105.283L106.874 17.5244V15.1611H107.667V18.9123H106.933L105.342 16.549V18.9123Z" fill="#FF965C"/>
<path d="M109.764 17.6798L110.551 17.6905C110.578 18.0549 110.868 18.3068 111.329 18.3068C111.698 18.3068 111.972 18.146 111.972 17.8512C111.972 17.5351 111.666 17.4708 111.039 17.3475C110.407 17.2296 109.849 17.026 109.849 16.265C109.849 15.6005 110.401 15.1289 111.248 15.1289C112.132 15.1289 112.695 15.5898 112.706 16.3079H111.918C111.88 15.9917 111.639 15.772 111.248 15.772C110.905 15.772 110.659 15.9167 110.659 16.2061C110.659 16.5115 110.953 16.5758 111.575 16.6937C112.218 16.8116 112.786 17.0045 112.781 17.7601C112.775 18.4622 112.197 18.9445 111.318 18.9445C110.364 18.9445 109.769 18.4407 109.764 17.6798Z" fill="#FF965C"/>
<path d="M114.505 15.8524V15.1611H117.479V15.8524H116.391V18.9123H115.587V15.8524H114.505Z" fill="#FF965C"/>
<path d="M119.514 18.9123V15.1611H121.041C121.866 15.1611 122.418 15.6487 122.418 16.4097C122.418 16.892 122.166 17.2778 121.775 17.4654L122.515 18.9123H121.625L120.993 17.653H120.318V18.9123H119.514ZM120.977 15.8309H120.318V16.9831H120.977C121.357 16.9831 121.598 16.758 121.598 16.4097C121.598 16.056 121.357 15.8309 120.977 15.8309Z" fill="#FF965C"/>
<path d="M124.491 17.2939V15.1611H125.295V17.3368C125.295 17.9316 125.515 18.2532 126.029 18.2532C126.549 18.2532 126.769 17.9316 126.769 17.3368V15.1611H127.573V17.2939C127.573 18.3603 127.042 18.9445 126.029 18.9445C125.022 18.9445 124.491 18.3603 124.491 17.2939Z" fill="#FF965C"/>
<path d="M131.434 18.9445C130.319 18.9445 129.644 18.1889 129.644 17.0367C129.644 15.8845 130.346 15.1289 131.482 15.1289C132.372 15.1289 132.999 15.6862 133.095 16.5008H132.281C132.184 16.0828 131.884 15.8095 131.439 15.8095C130.828 15.8095 130.464 16.3132 130.464 17.0367C130.464 17.7548 130.823 18.2639 131.429 18.2639C131.884 18.2639 132.184 17.9906 132.281 17.5726H133.09C132.999 18.3871 132.35 18.9445 131.434 18.9445Z" fill="#FF965C"/>
<path d="M134.757 15.8524V15.1611H137.731V15.8524H136.643V18.9123H135.839V15.8524H134.757Z" fill="#FF965C"/>
<path d="M139.766 18.9123V15.1611H140.57V18.9123H139.766Z" fill="#FF965C"/>
<path d="M146.382 17.0367C146.382 18.1299 145.626 18.9445 144.522 18.9445C143.418 18.9445 142.663 18.1299 142.663 17.0367C142.663 15.9435 143.418 15.1289 144.522 15.1289C145.626 15.1289 146.382 15.9435 146.382 17.0367ZM143.482 17.0367C143.482 17.7441 143.89 18.2639 144.522 18.2639C145.149 18.2639 145.556 17.7441 145.556 17.0367C145.556 16.3293 145.149 15.8095 144.522 15.8095C143.89 15.8095 143.482 16.3293 143.482 17.0367Z" fill="#FF965C"/>
<path d="M149.264 18.9123H148.476V15.1611H149.205L150.797 17.5244V15.1611H151.59V18.9123H150.855L149.264 16.549V18.9123Z" fill="#FF965C"/>
<defs>
<clipPath id="clip0_4066_1570">
<rect width="89.7919" height="39.6958" fill="white" transform="translate(0.198364 0.651978)"/>
</clipPath>
</defs>
</svg>
