<svg width="22" height="25" viewBox="0 0 22 25" fill="none" xmlns="http://www.w3.org/2000/svg">
<g id="Frame 131">
<path id="Ellipse 24" d="M11 21C9.02219 21 7.08879 20.4135 5.4443 19.3147C3.79981 18.2159 2.51808 16.6541 1.7612 14.8268C1.00433 12.9996 0.806295 10.9889 1.19215 9.0491C1.578 7.10929 2.53041 5.32746 3.92893 3.92893C5.32746 2.53041 7.10929 1.578 9.0491 1.19215C10.9889 0.806295 12.9996 1.00433 14.8268 1.7612C16.6541 2.51808 18.2159 3.79981 19.3147 5.4443C20.4135 7.08879 21 9.02219 21 11" stroke="#FF965C"/>
<path id="Vector 28" d="M12.7087 21.3435C12.9031 21.1474 12.9017 20.8308 12.7056 20.6364L9.51002 17.4681C9.31392 17.2737 8.99734 17.275 8.80292 17.4711C8.6085 17.6672 8.60986 17.9838 8.80596 18.1782L11.6465 20.9945L8.83025 23.835C8.63583 24.0311 8.63718 24.3477 8.83328 24.5421C9.02938 24.7366 9.34596 24.7352 9.54038 24.5391L12.7087 21.3435ZM10.9978 20.4973L10.4978 20.4994L10.5021 21.4994L11.0021 21.4973L10.9978 20.4973ZM12.3515 20.4915L10.9978 20.4973L11.0021 21.4973L12.3558 21.4914L12.3515 20.4915Z" fill="#FF965C"/>
</g>
</svg>
