<svg width="18" height="18" viewBox="0 0 18 18" fill="none" xmlns="http://www.w3.org/2000/svg">
<path d="M1 10V16C1 16.5523 1.44772 17 2 17H8C8.55229 17 9 16.5523 9 16V10C9 9.44772 8.55229 9 8 9H2C1.44772 9 1 9.44772 1 10Z" stroke="#FF965C" stroke-linecap="square"/>
<path d="M9 10V16C9 16.5523 9.44772 17 10 17H16C16.5523 17 17 16.5523 17 16V10C17 9.44772 16.5523 9 16 9H10C9.44772 9 9 9.44772 9 10Z" stroke="#FF965C" stroke-linecap="square"/>
<path d="M9 2V8C9 8.55229 9.44772 9 10 9H16C16.5523 9 17 8.55229 17 8V2C17 1.44772 16.5523 1 16 1H10C9.44772 1 9 1.44772 9 2Z" stroke="#FF965C" stroke-linecap="square"/>
<path d="M1 2V8C1 8.55229 1.44772 9 2 9H8C8.55229 9 9 8.55229 9 8V2C9 1.44772 8.55229 1 8 1H2C1.44772 1 1 1.44772 1 2Z" stroke="#FF965C" stroke-linecap="square"/>
</svg>
