<svg width="18" height="18" viewBox="0 0 18 18" fill="none" xmlns="http://www.w3.org/2000/svg">
<g id="Frame" clip-path="url(#clip0_2604_18018)">
<path id="Vector" d="M9 0.719971C4.43143 0.719971 0.720001 4.4314 0.720001 8.99997C0.720001 10.4684 1.12273 11.8389 1.79438 13.0352L0.733361 16.8229C0.71641 16.8836 0.715644 16.9475 0.731139 17.0085C0.746635 17.0695 0.77785 17.1254 0.821672 17.1706C0.865495 17.2158 0.920394 17.2487 0.980895 17.266C1.0414 17.2833 1.10539 17.2845 1.16649 17.2694L5.11594 16.2907C6.27647 16.9102 7.59333 17.28 9 17.28C13.5686 17.28 17.28 13.5685 17.28 8.99997C17.28 4.4314 13.5686 0.719971 9 0.719971ZM9 1.43997C13.1794 1.43997 16.56 4.82054 16.56 8.99997C16.56 13.1794 13.1794 16.56 9 16.56C7.66009 16.56 6.40516 16.2106 5.31422 15.6002C5.23443 15.5556 5.14067 15.5431 5.05195 15.565L1.59328 16.4222L2.5207 13.1133C2.53397 13.0665 2.53764 13.0175 2.53148 12.9693C2.52531 12.9211 2.50945 12.8746 2.48484 12.8327C1.82185 11.7085 1.44 10.4004 1.44 8.99997C1.44 4.82054 4.82057 1.43997 9 1.43997ZM5.99133 4.67997C5.76056 4.67997 5.43098 4.76583 5.16024 5.05755C4.99762 5.23277 4.32 5.89299 4.32 7.05372C4.32 8.26387 5.1593 9.30808 5.26078 9.44224H5.26149V9.44294C5.25186 9.43029 5.39029 9.63076 5.57508 9.87114C5.75987 10.1115 6.01827 10.4272 6.34289 10.769C6.99214 11.4526 7.90498 12.2426 9.03797 12.7258C9.55972 12.948 9.97135 13.0822 10.2832 13.18C10.8611 13.3615 11.3875 13.3339 11.783 13.2757C12.0789 13.2321 12.4045 13.09 12.7266 12.8861C13.0487 12.6823 13.3643 12.4289 13.5035 12.0438C13.6032 11.7677 13.6539 11.5126 13.6723 11.3027C13.6814 11.1977 13.6826 11.1051 13.6758 11.0193C13.669 10.9336 13.6762 10.8679 13.5963 10.7367C13.4287 10.4615 13.2389 10.4543 13.0409 10.3563C12.9308 10.3018 12.6175 10.1488 12.3033 9.99911C11.9894 9.84954 11.7176 9.71707 11.5502 9.65739C11.4445 9.61935 11.3154 9.56458 11.1291 9.58567C10.9428 9.60677 10.7588 9.74119 10.6516 9.89997C10.5501 10.0505 10.1413 10.533 10.0167 10.6748C10.0151 10.6738 10.0259 10.6788 9.97664 10.6544C9.82251 10.5781 9.63402 10.5133 9.35508 10.3661C9.07614 10.219 8.72721 10.0017 8.34539 9.66513V9.66442C7.77709 9.16411 7.37902 8.53597 7.25344 8.32497C7.2619 8.3149 7.25243 8.32709 7.27031 8.3095L7.27102 8.3088C7.39936 8.18238 7.51311 8.0314 7.60922 7.92067C7.74549 7.76368 7.80563 7.62529 7.87078 7.49599C8.00062 7.23829 7.92833 6.95472 7.8532 6.80552V6.80481C7.85839 6.81514 7.81257 6.71403 7.7632 6.59739C7.7137 6.48043 7.6506 6.32878 7.5832 6.16708C7.44841 5.84367 7.29793 5.48094 7.20844 5.26849V5.26778C7.10301 5.01754 6.96038 4.83726 6.77391 4.75028C6.58743 4.66331 6.42268 4.68804 6.41602 4.6877H6.41531C6.28224 4.68157 6.13621 4.67997 5.99133 4.67997ZM5.99133 5.39997C6.13012 5.39997 6.26696 5.40166 6.38156 5.407C6.49946 5.41288 6.49213 5.41336 6.46945 5.40278C6.44642 5.39204 6.47767 5.38855 6.54469 5.54763C6.63232 5.75565 6.78354 6.1197 6.91875 6.44411C6.98636 6.60632 7.04963 6.75854 7.10016 6.87794C7.15069 6.99733 7.17807 7.064 7.20984 7.12755V7.12825L7.21055 7.12895C7.2417 7.19042 7.23895 7.15107 7.22813 7.17255C7.15216 7.32333 7.14185 7.36035 7.065 7.44888C6.94799 7.58367 6.82864 7.734 6.76547 7.79622C6.7102 7.85052 6.61047 7.9351 6.5482 8.10067C6.48584 8.2665 6.51495 8.49402 6.615 8.66388C6.74821 8.89003 7.18719 9.60452 7.86938 10.2051C8.29899 10.5839 8.69924 10.8345 9.01899 11.0032C9.33873 11.1718 9.59915 11.2703 9.65742 11.2992C9.7958 11.3677 9.94704 11.4209 10.1229 11.3997C10.2987 11.3786 10.4504 11.2719 10.5469 11.1628L10.5476 11.1621C10.676 11.0165 11.0577 10.5806 11.2409 10.312C11.2486 10.3147 11.2461 10.3126 11.307 10.3345V10.3352H11.3077C11.3354 10.3451 11.6835 10.5009 11.9939 10.6488C12.3043 10.7967 12.6193 10.9504 12.7216 11.0011C12.8694 11.0742 12.9392 11.1218 12.9572 11.122C12.9584 11.1537 12.9596 11.188 12.9551 11.2401C12.9425 11.3847 12.9038 11.5849 12.8264 11.7991C12.7885 11.904 12.591 12.1203 12.342 12.2779C12.0929 12.4355 11.7898 12.5469 11.6775 12.5634C11.34 12.6131 10.9392 12.6313 10.4991 12.4931C10.1939 12.3973 9.81335 12.2733 9.32063 12.0635C8.32133 11.6373 7.47201 10.9121 6.86531 10.2733C6.56196 9.95394 6.31892 9.65662 6.14602 9.43169C5.97343 9.20718 5.89807 9.09035 5.83524 9.0077L5.83453 9.007C5.72299 8.8595 5.04 7.90948 5.04 7.05372C5.04 6.14805 5.46066 5.79289 5.68828 5.54763C5.80778 5.41887 5.93842 5.39997 5.99133 5.39997Z" fill="black"/>
</g>
<defs>
<clipPath id="clip0_2604_18018">
<rect width="18" height="18" fill="white"/>
</clipPath>
</defs>
</svg>
