<svg width="96" height="96" viewBox="0 0 96 96" fill="none" xmlns="http://www.w3.org/2000/svg">
<g id="Property 1=Variant3">
<circle id="Ellipse 38" cx="48" cy="48" r="47.5" stroke="#252321"/>
<path id="Vector 69" d="M27.8316 31H62.9793C63.3348 31 63.6635 31.1887 63.8428 31.4956L70.2715 42.5M27.8316 31L13.896 54.4898C13.5005 55.1564 13.9809 56 14.756 56H42.4364M27.8316 31L34.5498 42.5M40.3058 31L59.0172 64M52.0533 31L71.3316 64M42.4364 56L46.8204 63.5044C46.9997 63.8113 47.3328 64 47.6882 64C60.6931 64 68.3926 64 81.0855 64C81.8576 64 82.3422 63.1622 81.9527 62.4956L76.3316 52.8735M42.4364 56L40.61 52.8735M34.5498 42.5H70.2715M34.5498 42.5L40.61 52.8735M70.2715 42.5L76.3316 52.8735M76.3316 52.8735H40.61" stroke="#252321" stroke-width="1.13333" stroke-linejoin="round"/>
</g>
</svg>
