<svg width="96" height="96" viewBox="0 0 96 96" fill="none" xmlns="http://www.w3.org/2000/svg">
<circle cx="48" cy="48" r="47.5"/>
<path d="M39.3817 35.7659L34.9306 40.217M39.3817 35.7659L44.8424 30.3052C45.2067 29.941 45.2067 29.3504 44.8424 28.9862L43.6591 27.8029C43.4224 27.5662 43.0771 27.4745 42.7542 27.5626L37.3951 29.0242C37.2385 29.0669 37.0958 29.1497 36.981 29.2645L34.9306 31.3149M39.3817 35.7659L47.8422 44.2264C48.2064 44.5906 48.2064 45.1812 47.8422 45.5454L44.7101 48.6775C44.3459 49.0417 43.7553 49.0417 43.3911 48.6775L34.9306 40.217M34.9306 40.217L30.3045 44.8432C29.9402 45.2074 29.3497 45.2074 28.9855 44.8432L25.8534 41.7111C25.4892 41.3468 25.4892 40.7563 25.8534 40.3921L30.4796 35.7659M30.4796 35.7659L28.6353 33.9217C28.2711 33.5575 28.2711 32.9669 28.6353 32.6027L31.7674 29.4706C32.1316 29.1064 32.7222 29.1064 33.0864 29.4706L34.9306 31.3149M30.4796 35.7659L34.9306 31.3149M49.2606 54.547L62.0792 67.3656C62.4434 67.7298 63.0339 67.7298 63.3982 67.3656L66.5303 64.2335C66.8945 63.8692 66.8945 63.2787 66.5303 62.9145L53.7117 50.0959C53.3474 49.7317 52.7569 49.7317 52.3927 50.0959L49.2606 53.228C48.8964 53.5922 48.8964 54.1827 49.2606 54.547Z" stroke="#252321"/>
<path d="M34.0334 66.9897L30.8585 63.8148C30.4943 63.4506 30.4943 62.8601 30.8585 62.4958L54.4536 38.9008C54.6149 38.7395 54.7115 38.5246 54.7251 38.2968L55.0785 32.3645C55.092 32.1367 55.1886 31.9218 55.35 31.7605L58.1775 28.933C58.3448 28.7657 58.5694 28.6682 58.8058 28.6603L62.5366 28.5354C63.3822 28.5071 63.8255 29.5288 63.2273 30.1271L59.9936 33.3608C59.6294 33.725 59.6294 34.3155 59.9936 34.6797L63.1685 37.8546C63.5327 38.2189 64.1232 38.2189 64.4875 37.8546L67.7086 34.6335C68.3084 34.0337 69.3327 34.4813 69.3 35.329L69.1578 39.0136C69.1487 39.2484 69.0514 39.471 68.8853 39.6372L66.0539 42.4685C65.8937 42.6287 65.6807 42.7251 65.4546 42.7397L59.5486 43.1215C59.3226 43.1362 59.1095 43.2326 58.9493 43.3928L35.3524 66.9897C34.9882 67.3539 34.3976 67.3539 34.0334 66.9897Z" stroke="#252321"/>
</svg>
