<svg width="96" height="96" viewBox="0 0 96 96" fill="none" xmlns="http://www.w3.org/2000/svg">
<path d="M86.205 27.84C85.44 23.6175 81.795 20.5425 77.565 19.5825C71.235 18.24 59.52 17.28 46.845 17.28C34.1775 17.28 22.275 18.24 15.9375 19.5825C11.715 20.5425 8.06251 23.4225 7.29751 27.84C6.52501 32.64 5.76001 39.36 5.76001 48C5.76001 56.64 6.52501 63.36 7.48501 68.16C8.25751 72.3825 11.9025 75.4575 16.125 76.4175C22.845 77.76 34.365 78.72 47.04 78.72C59.715 78.72 71.235 77.76 77.955 76.4175C82.1775 75.4575 85.8225 72.5775 86.595 68.16C87.36 63.36 88.32 56.445 88.515 48C88.125 39.36 87.165 32.64 86.205 27.84ZM36.48 61.44V34.56L59.9025 48L36.48 61.44Z" fill="#FF772C"/>
<path d="M36.48 34.56V61.44L59.9025 48L36.48 34.56Z" fill="#E4E4E4"/>
</svg>
