<svg width="36" height="36" viewBox="0 0 36 36" fill="none" xmlns="http://www.w3.org/2000/svg">
<g id="House-Icon 1">
<path id="Vector 29" d="M27 4H9C6.23858 4 4 6.23858 4 9V27C4 29.7614 6.23858 32 9 32H27C29.7614 32 32 29.7614 32 27V9C32 6.23858 29.7614 4 27 4Z" stroke="#252321" stroke-linecap="square" stroke-dasharray="3 3"/>
<path id="S" d="M13.5 20.2253H13.45V20.2753C13.45 21.4577 13.8303 22.4033 14.5353 23.0529C15.2397 23.702 16.2624 24.05 17.5368 24.05C18.7931 24.05 19.868 23.7492 20.6301 23.1589C21.3938 22.5674 21.8386 21.6886 21.8386 20.5449C21.8386 19.6237 21.3934 18.9735 20.7235 18.4985C20.056 18.0253 19.1635 17.7244 18.2607 17.4965C17.4999 17.2943 16.8082 17.0685 16.307 16.7364C15.8085 16.4061 15.5022 15.9736 15.5022 15.3539C15.5022 14.5436 15.8341 13.9267 16.398 13.5107C16.9638 13.0935 17.767 12.8758 18.7114 12.8758C19.5876 12.8758 20.2948 13.1177 20.7862 13.538C21.277 13.9577 21.5569 14.559 21.5732 15.2876L21.5743 15.3365H21.6232H22.5H22.5504L22.55 15.2861C22.5416 14.305 22.1937 13.4694 21.5451 12.8794C20.8969 12.2899 19.9533 11.95 18.761 11.95C17.5625 11.95 16.5002 12.2424 15.7363 12.8218C14.9708 13.4024 14.5088 14.2685 14.5088 15.4045C14.5088 16.3161 14.9197 16.9497 15.5552 17.4106C16.1878 17.8694 17.0435 18.1577 17.9377 18.3855C18.7233 18.5961 19.4525 18.8346 19.9849 19.1816C20.5151 19.5272 20.8452 19.9768 20.8452 20.6124C20.8452 21.4481 20.5091 22.0732 19.9292 22.491C19.3471 22.9105 18.515 23.1242 17.5202 23.1242C16.6351 23.1242 15.8704 22.8904 15.3235 22.42C14.7777 21.9504 14.4432 21.2401 14.4268 20.2744L14.426 20.2253H14.3768H13.5Z" fill="#252321" stroke="#252321" stroke-width="0.1"/>
</g>
</svg>
