<svg width="36" height="36" viewBox="0 0 36 36" fill="none" xmlns="http://www.w3.org/2000/svg">
<g id="House-Icon 1">
<path id="Vector 38" d="M24.2429 28.1251H12.1296C12.0438 28.1251 11.9579 28.1103 11.8774 28.0808C7.69694 26.5475 5.3608 23.3926 4.6168 18.8356C4.54448 18.3927 4.89423 18.0001 5.34305 18.0001H30.6198C31.0815 18.0001 31.4346 18.4139 31.3439 18.8666C30.4415 23.3709 28.3044 26.6423 24.4995 28.079C24.4177 28.1099 24.3303 28.1251 24.2429 28.1251Z" stroke="#252321" stroke-linecap="round"/>
<path id="Vector 42" d="M5 20.5001H31" stroke="#252321" stroke-linecap="round"/>
<path id="Vector 48" d="M12.1063 28.3207L10.5922 29.8348" stroke="#252321" stroke-linecap="round"/>
<path id="Vector 49" d="M24.7429 28.3207L26.2571 29.8348" stroke="#252321" stroke-linecap="round"/>
<path id="Vector 39" d="M9.37501 17.6251C9.37501 17.6251 9.37502 10 9.37501 8.25012C9.37501 6.50024 12.375 6.00012 12.375 6.00012" stroke="#252321" stroke-linecap="round"/>
<path id="Ellipse 26" d="M16.5104 5.51769L12.1948 9.83329C12.1286 9.5768 12.1306 9.25219 12.2277 8.86383C12.3942 8.19796 12.826 7.4343 13.5052 6.75513C14.1844 6.07595 14.948 5.6441 15.6139 5.47763C16.0023 5.38054 16.3269 5.37853 16.5834 5.44472L16.5104 5.51769Z" stroke="#252321"/>
<circle id="Ellipse 27" cx="12.75" cy="6.00012" r="0.5" stroke="#252321" stroke-width="0.5"/>
<path id="Vector 41" d="M27 18V15.5006C27 14.9452 26.7 13.8344 25.5 13.8344C24.3 13.8344 24 14.9452 24 15.5006" stroke="#252321" stroke-linecap="round"/>
</g>
</svg>
