<svg width="36" height="36" viewBox="0 0 36 36" fill="none" xmlns="http://www.w3.org/2000/svg">
<g id="House-Icon 1">
<path id="Vector 38" d="M24.2429 28.125H12.1296C12.0438 28.125 11.9579 28.1102 11.8774 28.0807C7.69694 26.5474 5.3608 23.3925 4.6168 18.8355C4.54448 18.3925 4.89423 18 5.34305 18H30.6198C31.0815 18 31.4346 18.4138 31.3439 18.8665C30.4415 23.3708 28.3044 26.6422 24.4995 28.0789C24.4177 28.1097 24.3303 28.125 24.2429 28.125Z" stroke="#E4E4E4" stroke-linecap="round"/>
<path id="Vector 42" d="M5 20.5H31" stroke="#E4E4E4" stroke-linecap="round"/>
<path id="Vector 48" d="M12.1063 28.3208L10.5922 29.835" stroke="#E4E4E4" stroke-linecap="round"/>
<path id="Vector 49" d="M24.7429 28.3208L26.2571 29.835" stroke="#E4E4E4" stroke-linecap="round"/>
<path id="Vector 39" d="M9.37501 17.625C9.37501 17.625 9.37502 9.99988 9.37501 8.25C9.37501 6.50012 12.375 6 12.375 6" stroke="#E4E4E4" stroke-linecap="round"/>
<path id="Ellipse 26" d="M16.5104 5.51769L12.1948 9.83329C12.1286 9.5768 12.1306 9.25219 12.2277 8.86383C12.3942 8.19796 12.826 7.4343 13.5052 6.75513C14.1844 6.07595 14.948 5.6441 15.6139 5.47763C16.0023 5.38054 16.3269 5.37853 16.5834 5.44472L16.5104 5.51769Z" stroke="#E4E4E4"/>
<circle id="Ellipse 27" cx="12.75" cy="6" r="0.5" stroke="#E4E4E4" stroke-width="0.5"/>
<path id="Vector 41" d="M27 18.0001V15.5007C27 14.9453 26.7 13.8345 25.5 13.8345C24.3 13.8345 24 14.9453 24 15.5007" stroke="#E4E4E4" stroke-linecap="round"/>
</g>
</svg>
