<?xml version="1.0" encoding="UTF-8" standalone="no" ?>

<svg xmlns="http://www.w3.org/2000/svg" xmlns:xlink="http://www.w3.org/1999/xlink" version="1.1" width="58" height="67" viewBox="0 0 58 67" xml:space="preserve">
<desc>Created with Fabric.js 5.2.4</desc>
<defs>
</defs>
<g transform="matrix(1 0 0 1 540 540)" id="fb06058c-54c4-410b-8bf8-5cf352889102"  >
<rect style="stroke: none; stroke-width: 1; stroke-dasharray: none; stroke-linecap: butt; stroke-dashoffset: 0; stroke-linejoin: miter; stroke-miterlimit: 4; fill: rgb(255,255,255); fill-rule: nonzero; opacity: 1; visibility: hidden;" vector-effect="non-scaling-stroke"  x="-540" y="-540" rx="0" ry="0" width="1080" height="1080" />
</g>
<g transform="matrix(1 0 0 1 540 540)" id="49a51d40-8ff6-4375-9555-0ede22b44973"  >
</g>
<g transform="matrix(1 0 0 1 540 540)"  >
<g style="" vector-effect="non-scaling-stroke"   >
		<g transform="matrix(1 0 0 1 0 -5.5)"  >
<path style="stroke: none; stroke-width: 1; stroke-dasharray: none; stroke-linecap: butt; stroke-dashoffset: 0; stroke-linejoin: miter; stroke-miterlimit: 4; fill: rgb(255,0,0); fill-rule: nonzero; opacity: 1;" vector-effect="non-scaling-stroke"  transform=" translate(-29, -30)" d="M 34.342 49.376 C 31.266 50.306 29.654999999999998 52.355 29.511 55.522999999999996 C 29.49869955390671 55.790121202197454 29.278404109011912 56.00028305662709 29.011 55.99999999999999 L 28.989 55.99999999999999 C 28.721595890988088 56.00028305662709 28.50130044609329 55.790121202197454 28.489 55.522999999999996 C 28.345000000000002 52.355 26.734 50.306 23.658 49.376 C 13.53 46.968 6 37.863 6 27 C 6 14.297 16.297 4 29 4 C 41.703 4 52 14.297 52 27 C 52 37.863 44.469 46.968 34.342 49.376000000000005 z" stroke-linecap="round" />
</g>
		<g transform="matrix(1 0 0 1 0 27.5)"  >
<path style="stroke: none; stroke-width: 1; stroke-dasharray: none; stroke-linecap: butt; stroke-dashoffset: 0; stroke-linejoin: miter; stroke-miterlimit: 4; fill: rgb(255,255,255); fill-rule: nonzero; opacity: 1;" vector-effect="non-scaling-stroke"  transform=" translate(-29, -63)" d="M 29 67 C 26.790861000676827 67 25 65.20913899932317 25 63 C 25 60.79086100067683 26.790861000676827 59 29 59 C 31.209138999323173 59 33 60.79086100067683 33 63 C 33 65.20913899932317 31.209138999323176 67 29 67 z" stroke-linecap="round" />
</g>
		<g transform="matrix(1 0 0 1 0 27.5)"  >
<path style="stroke: none; stroke-width: 1; stroke-dasharray: none; stroke-linecap: butt; stroke-dashoffset: 0; stroke-linejoin: miter; stroke-miterlimit: 4; fill: rgb(255,0,0); fill-rule: evenodd; opacity: 1;" vector-effect="non-scaling-stroke"  transform=" translate(-29, -63)" d="M 29 65 C 30.104569499661586 65 31 64.1045694996616 31 63 C 31 61.89543050033841 30.104569499661586 61 29 61 C 27.895430500338414 61 27 61.89543050033841 27 63 C 27 64.1045694996616 27.895430500338414 65 29 65 z" stroke-linecap="round" />
</g>
</g>
</g>
<g transform="matrix(-0.15 -0.15 0.15 -0.15 540 531)" id="2b77f62d-12d0-4795-b3bb-e47b24ce3eca"  >
<path style="stroke: rgb(255,255,255); stroke-width: 0; stroke-dasharray: none; stroke-linecap: butt; stroke-dashoffset: 0; stroke-linejoin: miter; stroke-miterlimit: 4; fill: rgb(0,0,0); fill-opacity: 0; fill-rule: nonzero; opacity: 1;" vector-effect="non-scaling-stroke"  transform=" translate(-50, -50)" d="M 50 92.875 C 26.358 92.875 7.125 73.642 7.125 50 C 7.125 26.358000000000004 26.358 7.125 50 7.125 C 73.642 7.125 92.875 26.358 92.875 50 C 92.875 73.642 73.642 92.875 50 92.875 z M 50 9.125 C 27.461 9.125 9.125 27.461 9.125 50 C 9.125 72.538 27.461 90.875 50 90.875 C 72.538 90.875 90.875 72.538 90.875 50 C 90.875 27.461 72.538 9.125 50 9.125 z" stroke-linecap="round" />
</g>
<g transform="matrix(0.14 -0.14 0.14 0.14 540.14 531.56)" id="47088ad0-2045-4865-8519-0d738b330e2d"  >
<circle style="stroke: rgb(0,0,0); stroke-width: 0; stroke-dasharray: none; stroke-linecap: butt; stroke-dashoffset: 0; stroke-linejoin: miter; stroke-miterlimit: 4; fill: rgb(255,255,255); fill-rule: nonzero; opacity: 1;" vector-effect="non-scaling-stroke"  cx="0" cy="0" r="35" />
</g>
</svg>
