<?xml version="1.0" encoding="utf-8"?><svg viewBox="0 0 200 47" xmlns="http://www.w3.org/2000/svg" xmlns:xlink="http://www.w3.org/1999/xlink"><style>:root>svg{display:none}:root>svg:target{display:block}</style><svg viewBox="0 0 33 33" id="burger-icon" xmlns="http://www.w3.org/2000/svg"><path d="M7.2 9.5h18m-18 7h13.5m-13.5 7h18" stroke-width="2" stroke-linecap="round"/></svg><svg viewBox="0 0 200 47" id="header-logo" xmlns="http://www.w3.org/2000/svg"><path fill-rule="evenodd" clip-rule="evenodd" d="M0 0h47v47H0V0zm3.652 3.652v39.696h39.696V3.652H3.652z"/><path d="M8.336 16.86v-3.84H24.86v3.84h-6.044v17H14.35v-17H8.336z"/><path d="M24.851 33.86V13.02h13.755v3.84h-9.289v4.883h7.622v3.662h-7.622v8.456h-4.466z"/><g clip-path="url(#ba)"><path d="M79.828 34c-4.882 0-8.068-3.127-8.068-7.83 0-4.704 3.186-7.83 8.068-7.83 4.883 0 8.069 3.126 8.069 7.83 0 4.733-3.186 7.83-8.069 7.83zm0-3.424c2.352 0 3.811-1.816 3.811-4.407 0-2.59-1.459-4.406-3.81-4.406-2.353 0-3.782 1.816-3.782 4.406s1.43 4.407 3.781 4.407zm19.4-4.406v-7.652h4.198v15.303h-3.722l-.387-1.846C98.335 33.165 96.995 34 94.822 34c-3.156 0-6.074-1.577-6.074-6.996v-8.485h4.198v7.92c0 2.739.893 4.078 2.977 4.078 2.084 0 3.305-1.518 3.305-4.346zm5.211 2.56h3.989c.149 1.34 1.31 2.263 3.365 2.263 1.756 0 2.828-.566 2.828-1.638 0-1.25-1.042-1.34-3.513-1.667-3.573-.417-6.342-1.22-6.342-4.377 0-3.036 2.65-5.031 6.58-5.001 4.109 0 6.937 1.816 7.145 4.942h-4.019c-.119-1.22-1.28-1.965-2.977-1.965-1.638 0-2.709.595-2.709 1.578 0 1.161 1.31 1.28 3.513 1.548 3.513.357 6.43 1.161 6.43 4.615 0 3.036-2.858 4.971-6.966 4.971-4.258 0-7.145-1.994-7.324-5.27zM127.312 34c-5.091 0-8.158-3.067-8.158-7.8 0-4.764 3.126-7.86 7.86-7.86 4.585 0 7.681 2.858 7.741 7.353 0 .447-.03.953-.119 1.43h-11.105v.208c.089 2.173 1.488 3.483 3.602 3.483 1.697 0 2.888-.744 3.245-2.173h4.139c-.477 2.977-3.126 5.358-7.205 5.358zm-3.692-9.617h6.907c-.297-1.875-1.578-2.917-3.483-2.917-1.816 0-3.186 1.101-3.424 2.917z"/><path fill-rule="evenodd" clip-rule="evenodd" d="M60.643 16.196l7.626 7.626-2.441 2.442-5.185-5.185-8.979 8.979-2.441-2.442 11.42-11.42z"/><path fill-rule="evenodd" clip-rule="evenodd" d="M53.63 30.676v3.145h4.465V26.21l-4.466 4.466zm0-10.048l4.465-4.466v-3.181h-4.466v7.647zm12.741 7.674v5.519h4.466v-9.984l-4.466 4.465zm4.466-4.494l-4.466-4.466v-6.361h4.466v10.827z"/></g><path d="M141.097 16.672h-.83l1.372-3.75h.964l1.361 3.75h-.862l-.29-.82h-1.425l-.29.82zm.997-2.893l-.493 1.425h.992l-.499-1.425zm3.822 2.893v-3.75h1.528c.825 0 1.377.487 1.377 1.248 0 .482-.252.868-.643 1.056l.739 1.446h-.889l-.633-1.259h-.675v1.26h-.804zm1.463-3.08h-.659v1.151h.659c.381 0 .622-.225.622-.573 0-.354-.241-.579-.622-.579zm5.171 3.113c-1.115 0-1.79-.756-1.79-1.908s.702-1.908 1.838-1.908c.89 0 1.517.557 1.613 1.372h-.814c-.097-.418-.397-.691-.842-.691-.611 0-.975.503-.975 1.227 0 .718.359 1.227.965 1.227.455 0 .755-.273.852-.691h.809c-.091.814-.74 1.372-1.656 1.372zm3.72-.033v-3.75h.804v1.505h1.49v-1.506h.803v3.751h-.803v-1.548h-1.49v1.548h-.804zm5.344 0v-3.75h.804v3.75h-.804zm2.833-3.059v-.692h2.974v.692h-1.088v3.06h-.804v-3.06h-1.082zm5.009 3.059v-3.75h2.519v.69h-1.715v.842h1.393v.659h-1.393v.868h1.774v.691h-2.578zm6.215.033c-1.115 0-1.79-.756-1.79-1.908s.702-1.908 1.838-1.908c.89 0 1.517.557 1.613 1.372h-.815c-.096-.418-.396-.691-.841-.691-.611 0-.975.503-.975 1.227 0 .718.359 1.227.964 1.227.456 0 .756-.273.852-.691h.81c-.091.814-.74 1.372-1.656 1.372zm3.322-3.092v-.692h2.975v.692h-1.088v3.06h-.804v-3.06h-1.083zm4.983 1.441v-2.133h.804v2.176c0 .595.219.916.734.916.52 0 .739-.321.739-.916V12.92h.804v2.133c0 1.066-.53 1.65-1.543 1.65-1.008 0-1.538-.584-1.538-1.65zm5.303 1.618v-3.75h1.527c.825 0 1.377.487 1.377 1.248 0 .482-.252.868-.643 1.056l.74 1.446h-.89l-.632-1.259h-.675v1.26h-.804zm1.463-3.08h-.659v1.151h.659c.38 0 .621-.225.621-.573 0-.354-.241-.579-.621-.579zm3.562 3.08v-3.75h2.519v.69h-1.715v.842h1.393v.659h-1.393v.868h1.773v.691h-2.577zm-52.371 10.48h-1.366v-3.751h1.366c1.169 0 1.946.766 1.946 1.87 0 1.099-.777 1.881-1.946 1.881zm-.562-3.081v2.411h.562c.719 0 1.12-.498 1.12-1.21 0-.719-.401-1.201-1.12-1.201h-.562zm4.603 3.081v-3.751h2.519v.691h-1.715v.841h1.393v.66h-1.393v.868h1.774v.691h-2.578zm4.519-1.232l.788.01c.027.365.316.617.777.617.37 0 .643-.161.643-.456 0-.316-.305-.38-.932-.504-.633-.118-1.19-.321-1.19-1.082 0-.665.552-1.136 1.399-1.136.884 0 1.446.46 1.457 1.179h-.788c-.037-.316-.278-.536-.669-.536-.343 0-.59.145-.59.434 0 .305.295.37.916.487.643.118 1.212.311 1.206 1.067-.005.702-.584 1.184-1.463 1.184-.954 0-1.549-.503-1.554-1.264zm5.107 1.232v-3.751h.804v3.751h-.804zm4.681.032c-1.071 0-1.784-.755-1.784-1.908 0-1.152.707-1.907 1.86-1.907.905 0 1.543.557 1.639 1.366h-.803c-.097-.412-.397-.686-.858-.686-.627 0-1.018.504-1.018 1.227 0 .724.375 1.228 1.018 1.228.429 0 .863-.225.938-.75v-.049h-.933v-.637h1.678v2.084h-.563l-.08-.45c-.199.263-.563.482-1.094.482zm4.775-.032h-.787v-3.751h.728l1.592 2.363v-2.363h.793v3.751h-.734l-1.592-2.363v2.363zM142.207 21.945c-1.115 0-1.79-.756-1.79-1.908s.702-1.908 1.838-1.908c.89 0 1.517.557 1.613 1.372h-.815c-.096-.418-.396-.692-.841-.692-.611 0-.975.504-.975 1.228 0 .718.359 1.227.964 1.227.456 0 .756-.273.852-.691h.81c-.091.814-.74 1.372-1.656 1.372zm7.252-1.908c0 1.093-.755 1.908-1.859 1.908s-1.86-.815-1.86-1.908.756-1.908 1.86-1.908 1.859.814 1.859 1.908zm-2.899 0c0 .707.407 1.227 1.04 1.227.627 0 1.034-.52 1.034-1.227 0-.708-.407-1.227-1.034-1.227-.633 0-1.04.52-1.04 1.227zm5.782 1.875h-.788v-3.75h.729l1.591 2.362v-2.363h.793v3.751h-.734l-1.591-2.363v2.363zm4.422-1.232l.787.01c.027.365.317.617.778.617.369 0 .643-.161.643-.456 0-.316-.306-.38-.933-.503-.632-.118-1.19-.322-1.19-1.083 0-.665.552-1.136 1.399-1.136.884 0 1.447.46 1.458 1.179h-.788c-.038-.316-.279-.536-.67-.536-.343 0-.589.145-.589.434 0 .306.294.37.916.488.643.118 1.211.31 1.206 1.066-.006.702-.584 1.184-1.463 1.184-.954 0-1.549-.503-1.554-1.264zm4.741-1.828v-.69h2.974v.69h-1.088v3.06h-.804v-3.06h-1.082zm5.009 3.06v-3.75h1.527c.825 0 1.377.487 1.377 1.248 0 .482-.252.868-.643 1.055l.74 1.447h-.89l-.632-1.259h-.675v1.26h-.804zm1.463-3.081h-.659v1.152h.659c.38 0 .621-.225.621-.573 0-.354-.241-.58-.621-.58zm3.514 1.463V18.16h.804v2.176c0 .595.22.916.734.916.52 0 .74-.321.74-.916V18.16h.804v2.133c0 1.066-.531 1.65-1.544 1.65-1.007 0-1.538-.584-1.538-1.65zm6.943 1.651c-1.115 0-1.79-.756-1.79-1.908s.702-1.908 1.838-1.908c.89 0 1.517.557 1.613 1.372h-.814c-.097-.418-.397-.692-.842-.692-.611 0-.975.504-.975 1.228 0 .718.359 1.227.965 1.227.455 0 .755-.273.852-.691h.809c-.091.814-.74 1.372-1.656 1.372zm3.323-3.093v-.69h2.974v.69h-1.088v3.06h-.804v-3.06h-1.082zm5.009 3.06v-3.75h.804v3.75h-.804zm6.616-1.875c0 1.093-.756 1.908-1.86 1.908s-1.859-.815-1.859-1.908.755-1.908 1.859-1.908 1.86.814 1.86 1.908zm-2.9 0c0 .707.408 1.227 1.04 1.227.627 0 1.034-.52 1.034-1.227 0-.708-.407-1.227-1.034-1.227-.632 0-1.04.52-1.04 1.227zm5.782 1.875h-.788v-3.75h.729l1.592 2.362v-2.363h.793v3.751h-.735l-1.591-2.363v2.363z"/><defs><clipPath id="ba"><path transform="translate(47.198 3.652)" d="M0 0h89.792v39.696H0z"/></clipPath></defs></svg><svg viewBox="0 0 25 25" id="like-icon" xmlns="http://www.w3.org/2000/svg"><path clip-rule="evenodd" d="M12.201 20l-3.445-3.464-3.419-3.464a4.891 4.891 0 010-6.825 4.58 4.58 0 013.386-1.23 4.559 4.559 0 013.227 1.59l.251.24.249-.251a4.559 4.559 0 013.227-1.59 4.58 4.58 0 013.386 1.23 4.891 4.891 0 010 6.826l-3.419 3.464L12.201 20z"/></svg><svg viewBox="0 0 25 25" id="like-icon-2" xmlns="http://www.w3.org/2000/svg"><path clip-rule="evenodd" d="M12.201 20l-3.445-3.464-3.419-3.464a4.891 4.891 0 010-6.825 4.58 4.58 0 013.386-1.23 4.559 4.559 0 013.227 1.59l.251.24.249-.251a4.559 4.559 0 013.227-1.59 4.58 4.58 0 013.386 1.23 4.891 4.891 0 010 6.826l-3.419 3.464L12.201 20z"/></svg><svg viewBox="0 0 200 47" id="logo-main" xmlns="http://www.w3.org/2000/svg"><path fill-rule="evenodd" clip-rule="evenodd" d="M0 0h47v47H0V0zm3.652 3.652v39.696h39.696V3.652H3.652z" class="efill-orange"/><path d="M8.336 16.86v-3.84H24.86v3.84h-6.044v17H14.35v-17H8.336z"/><path d="M24.851 33.86V13.02h13.755v3.84h-9.289v4.883h7.622v3.662h-7.622v8.456h-4.466z"/><g clip-path="url(#ea)"><path d="M79.828 34c-4.882 0-8.068-3.127-8.068-7.83 0-4.704 3.186-7.83 8.068-7.83 4.883 0 8.069 3.126 8.069 7.83 0 4.733-3.186 7.83-8.069 7.83zm0-3.424c2.352 0 3.811-1.816 3.811-4.407 0-2.59-1.459-4.406-3.81-4.406-2.353 0-3.782 1.816-3.782 4.406s1.43 4.407 3.781 4.407zm19.4-4.406v-7.652h4.198v15.303h-3.722l-.387-1.846C98.335 33.165 96.995 34 94.822 34c-3.156 0-6.074-1.577-6.074-6.996v-8.485h4.198v7.92c0 2.739.893 4.078 2.977 4.078 2.084 0 3.305-1.518 3.305-4.346zm5.211 2.56h3.989c.149 1.34 1.31 2.263 3.365 2.263 1.756 0 2.828-.566 2.828-1.638 0-1.25-1.042-1.34-3.513-1.667-3.573-.417-6.342-1.22-6.342-4.377 0-3.036 2.65-5.031 6.58-5.001 4.109 0 6.937 1.816 7.145 4.942h-4.019c-.119-1.22-1.28-1.965-2.977-1.965-1.638 0-2.709.595-2.709 1.578 0 1.161 1.31 1.28 3.513 1.548 3.513.357 6.43 1.161 6.43 4.615 0 3.036-2.858 4.971-6.966 4.971-4.258 0-7.145-1.994-7.324-5.27zM127.312 34c-5.091 0-8.158-3.067-8.158-7.8 0-4.764 3.126-7.86 7.86-7.86 4.585 0 7.681 2.858 7.741 7.353 0 .447-.03.953-.119 1.43h-11.105v.208c.089 2.173 1.488 3.483 3.602 3.483 1.697 0 2.888-.744 3.245-2.173h4.139c-.477 2.977-3.126 5.358-7.205 5.358zm-3.692-9.617h6.907c-.297-1.875-1.578-2.917-3.483-2.917-1.816 0-3.186 1.101-3.424 2.917z"/><path fill-rule="evenodd" clip-rule="evenodd" d="M60.643 16.196l7.626 7.626-2.441 2.442-5.185-5.185-8.979 8.979-2.441-2.442 11.42-11.42z"/><path fill-rule="evenodd" clip-rule="evenodd" d="M53.63 30.676v3.145h4.465V26.21l-4.466 4.466zm0-10.048l4.465-4.466v-3.181h-4.466v7.647zm12.741 7.674v5.519h4.466v-9.984l-4.466 4.465zm4.466-4.494l-4.466-4.466v-6.361h4.466v10.827z"/></g><path d="M141.097 16.672h-.83l1.372-3.75h.964l1.361 3.75h-.862l-.29-.82h-1.425l-.29.82zm.997-2.893l-.493 1.425h.992l-.499-1.425zm3.822 2.893v-3.75h1.528c.825 0 1.377.487 1.377 1.248 0 .482-.252.868-.643 1.056l.739 1.446h-.889l-.633-1.259h-.675v1.26h-.804zm1.463-3.08h-.659v1.151h.659c.381 0 .622-.225.622-.573 0-.354-.241-.579-.622-.579zm5.171 3.113c-1.115 0-1.79-.756-1.79-1.908s.702-1.908 1.838-1.908c.89 0 1.517.557 1.613 1.372h-.814c-.097-.418-.397-.691-.842-.691-.611 0-.975.503-.975 1.227 0 .718.359 1.227.965 1.227.455 0 .755-.273.852-.691h.809c-.091.814-.74 1.372-1.656 1.372zm3.72-.033v-3.75h.804v1.505h1.49v-1.506h.803v3.751h-.803v-1.548h-1.49v1.548h-.804zm5.344 0v-3.75h.804v3.75h-.804zm2.833-3.059v-.692h2.974v.692h-1.088v3.06h-.804v-3.06h-1.082zm5.009 3.059v-3.75h2.519v.69h-1.715v.842h1.393v.659h-1.393v.868h1.774v.691h-2.578zm6.215.033c-1.115 0-1.79-.756-1.79-1.908s.702-1.908 1.838-1.908c.89 0 1.517.557 1.613 1.372h-.815c-.096-.418-.396-.691-.841-.691-.611 0-.975.503-.975 1.227 0 .718.359 1.227.964 1.227.456 0 .756-.273.852-.691h.81c-.091.814-.74 1.372-1.656 1.372zm3.322-3.092v-.692h2.975v.692h-1.088v3.06h-.804v-3.06h-1.083zm4.983 1.441v-2.133h.804v2.176c0 .595.219.916.734.916.52 0 .739-.321.739-.916V12.92h.804v2.133c0 1.066-.53 1.65-1.543 1.65-1.008 0-1.538-.584-1.538-1.65zm5.303 1.618v-3.75h1.527c.825 0 1.377.487 1.377 1.248 0 .482-.252.868-.643 1.056l.74 1.446h-.89l-.632-1.259h-.675v1.26h-.804zm1.463-3.08h-.659v1.151h.659c.38 0 .621-.225.621-.573 0-.354-.241-.579-.621-.579zm3.562 3.08v-3.75h2.519v.69h-1.715v.842h1.393v.659h-1.393v.868h1.773v.691h-2.577zm-52.371 10.48h-1.366v-3.751h1.366c1.169 0 1.946.766 1.946 1.87 0 1.099-.777 1.881-1.946 1.881zm-.562-3.081v2.411h.562c.719 0 1.12-.498 1.12-1.21 0-.719-.401-1.201-1.12-1.201h-.562zm4.603 3.081v-3.751h2.519v.691h-1.715v.841h1.393v.66h-1.393v.868h1.774v.691h-2.578zm4.519-1.232l.788.01c.027.365.316.617.777.617.37 0 .643-.161.643-.456 0-.316-.305-.38-.932-.504-.633-.118-1.19-.321-1.19-1.082 0-.665.552-1.136 1.399-1.136.884 0 1.446.46 1.457 1.179h-.788c-.037-.316-.278-.536-.669-.536-.343 0-.59.145-.59.434 0 .305.295.37.916.487.643.118 1.212.311 1.206 1.067-.005.702-.584 1.184-1.463 1.184-.954 0-1.549-.503-1.554-1.264zm5.107 1.232v-3.751h.804v3.751h-.804zm4.681.032c-1.071 0-1.784-.755-1.784-1.908 0-1.152.707-1.907 1.86-1.907.905 0 1.543.557 1.639 1.366h-.803c-.097-.412-.397-.686-.858-.686-.627 0-1.018.504-1.018 1.227 0 .724.375 1.228 1.018 1.228.429 0 .863-.225.938-.75v-.049h-.933v-.637h1.678v2.084h-.563l-.08-.45c-.199.263-.563.482-1.094.482zm4.775-.032h-.787v-3.751h.728l1.592 2.363v-2.363h.793v3.751h-.734l-1.592-2.363v2.363z"/><path d="M142.207 21.945c-1.115 0-1.79-.756-1.79-1.908s.702-1.908 1.838-1.908c.89 0 1.517.557 1.613 1.372h-.815c-.096-.418-.396-.692-.841-.692-.611 0-.975.504-.975 1.228 0 .718.359 1.227.964 1.227.456 0 .756-.273.852-.691h.81c-.091.814-.74 1.372-1.656 1.372zm7.252-1.908c0 1.093-.755 1.908-1.859 1.908s-1.86-.815-1.86-1.908.756-1.908 1.86-1.908 1.859.814 1.859 1.908zm-2.899 0c0 .707.407 1.227 1.04 1.227.627 0 1.034-.52 1.034-1.227 0-.708-.407-1.227-1.034-1.227-.633 0-1.04.52-1.04 1.227z" class="efill-orange"/><path d="M152.342 21.912h-.788v-3.75h.729l1.591 2.362v-2.363h.793v3.751h-.734l-1.591-2.363v2.363z"/><path d="M156.764 20.68l.787.01c.027.365.317.617.778.617.369 0 .643-.161.643-.456 0-.316-.306-.38-.933-.503-.632-.118-1.19-.322-1.19-1.083 0-.665.552-1.136 1.399-1.136.884 0 1.447.46 1.458 1.179h-.788c-.038-.316-.279-.536-.67-.536-.343 0-.589.145-.589.434 0 .306.294.37.916.488.643.118 1.211.31 1.206 1.066-.006.702-.584 1.184-1.463 1.184-.954 0-1.549-.503-1.554-1.264z" class="efill-orange"/><path d="M161.505 18.852v-.69h2.974v.69h-1.088v3.06h-.804v-3.06h-1.082z"/><path d="M166.514 21.912v-3.75h1.527c.825 0 1.377.487 1.377 1.248 0 .482-.252.868-.643 1.055l.74 1.447h-.89l-.632-1.259h-.675v1.26h-.804zm1.463-3.081h-.659v1.152h.659c.38 0 .621-.225.621-.573 0-.354-.241-.58-.621-.58zm3.514 1.463V18.16h.804v2.176c0 .595.22.916.734.916.52 0 .74-.321.74-.916V18.16h.804v2.133c0 1.066-.531 1.65-1.544 1.65-1.007 0-1.538-.584-1.538-1.65zm6.943 1.651c-1.115 0-1.79-.756-1.79-1.908s.702-1.908 1.838-1.908c.89 0 1.517.557 1.613 1.372h-.814c-.097-.418-.397-.692-.842-.692-.611 0-.975.504-.975 1.228 0 .718.359 1.227.965 1.227.455 0 .755-.273.852-.691h.809c-.091.814-.74 1.372-1.656 1.372zm3.323-3.093v-.69h2.974v.69h-1.088v3.06h-.804v-3.06h-1.082zm5.009 3.06v-3.75h.804v3.75h-.804z" class="efill-orange"/><path d="M193.382 20.037c0 1.093-.756 1.908-1.86 1.908s-1.859-.815-1.859-1.908.755-1.908 1.859-1.908 1.86.814 1.86 1.908zm-2.9 0c0 .707.408 1.227 1.04 1.227.627 0 1.034-.52 1.034-1.227 0-.708-.407-1.227-1.034-1.227-.632 0-1.04.52-1.04 1.227z"/><path d="M196.264 21.912h-.788v-3.75h.729l1.592 2.362v-2.363h.793v3.751h-.735l-1.591-2.363v2.363z" class="efill-orange"/><defs><clipPath id="ea"><path transform="translate(47.198 3.652)" d="M0 0h89.792v39.696H0z"/></clipPath></defs></svg><svg viewBox="0 0 10 26" id="rub" xmlns="http://www.w3.org/2000/svg"><path d="M1.392 19V7.576H4.4c1.397 0 2.432.283 3.104.848.683.566 1.024 1.387 1.024 2.464 0 .726-.165 1.35-.496 1.872-.33.512-.821.907-1.472 1.184-.64.277-1.435.416-2.384.416H2.832V19h-1.44zM0 16.824v-1.04h5.472v1.04H0zm0-2.464v-1.216h3.664v1.216H0zm3.968-1.216c.65 0 1.2-.07 1.648-.208.459-.139.81-.368 1.056-.688.245-.32.368-.757.368-1.312 0-.725-.224-1.264-.672-1.616-.448-.352-1.147-.528-2.096-.528h-1.44v4.352h1.136z"/></svg></svg>