<?xml version="1.0" encoding="utf-8"?><svg viewBox="0 0 200 96" xmlns="http://www.w3.org/2000/svg" xmlns:xlink="http://www.w3.org/1999/xlink"><style>:root>svg{display:none}:root>svg:target{display:block}</style><svg viewBox="0 0 15 15" id="arrow-dropdown" xmlns="http://www.w3.org/2000/svg"><path d="M3.2 5.5l4 4 4-4"/></svg><svg viewBox="0 0 33 33" id="burger-icon" xmlns="http://www.w3.org/2000/svg"><path d="M7.2 9.5h18m-18 7h13.5m-13.5 7h18" stroke-width="2" stroke-linecap="round"/></svg><svg viewBox="0 0 96 96" id="foundation" xmlns="http://www.w3.org/2000/svg"><circle cx="48" cy="48" r="47.5"/><path d="M68.5 68.5h-41a1 1 0 01-1-1V43a1 1 0 011-1H39a1 1 0 011 1v3a1 1 0 01-1 1h-6a1 1 0 00-1 1v14a1 1 0 001 1h30a1 1 0 001-1V48.5a1 1 0 00-1-1h-5.5a1 1 0 01-1-1V43a1 1 0 011-1h11a1 1 0 011 1v24.5a1 1 0 01-1 1z"/><path d="M35 51v8a1 1 0 001 1h24a1 1 0 001-1v-8a1 1 0 00-1-1h-5a1 1 0 01-1-1V25.5a1 1 0 00-1-1h-9.5a1 1 0 00-1 1V49a1 1 0 01-1 1H36a1 1 0 00-1 1z"/></svg><svg viewBox="0 0 96 96" id="foundation-icon" xmlns="http://www.w3.org/2000/svg"><circle cx="48" cy="48" r="47.5"/><path d="M48 71l25-12.5v-10M48 71L23.5 58.5v-10M48 71V61m0 0l25-12.5M48 61L23.5 48.5m49.5 0L58.5 41m-35 7.5l13.5-7M48 54l-11-5.5v-7M48 54l10.5-5.5V41M48 54V32m10.5-5L48 32m10.5-5L48 22l-11 5m21.5 0v14M48 32l-11-5m0 0v14.5"/></svg><svg viewBox="0 0 24 24" id="fullscreen-icon" xmlns="http://www.w3.org/2000/svg"><path d="M1.5 6V2.625c0-.621.504-1.125 1.125-1.125H6M1.5 18v3.375c0 .621.504 1.125 1.125 1.125H6m12-21h3.375c.621 0 1.125.504 1.125 1.125V6M18 22.5h3.375c.621 0 1.125-.504 1.125-1.125V18" stroke-width="1.125" stroke-linecap="round"/></svg><svg viewBox="0 0 200 47" id="header-logo" xmlns="http://www.w3.org/2000/svg"><path fill-rule="evenodd" clip-rule="evenodd" d="M0 0h47v47H0V0zm3.652 3.652v39.696h39.696V3.652H3.652z"/><path d="M8.336 16.86v-3.84H24.86v3.84h-6.044v17H14.35v-17H8.336z"/><path d="M24.851 33.86V13.02h13.755v3.84h-9.289v4.883h7.622v3.662h-7.622v8.456h-4.466z"/><g clip-path="url(#fa)"><path d="M79.828 34c-4.882 0-8.068-3.127-8.068-7.83 0-4.704 3.186-7.83 8.068-7.83 4.883 0 8.069 3.126 8.069 7.83 0 4.733-3.186 7.83-8.069 7.83zm0-3.424c2.352 0 3.811-1.816 3.811-4.407 0-2.59-1.459-4.406-3.81-4.406-2.353 0-3.782 1.816-3.782 4.406s1.43 4.407 3.781 4.407zm19.4-4.406v-7.652h4.198v15.303h-3.722l-.387-1.846C98.335 33.165 96.995 34 94.822 34c-3.156 0-6.074-1.577-6.074-6.996v-8.485h4.198v7.92c0 2.739.893 4.078 2.977 4.078 2.084 0 3.305-1.518 3.305-4.346zm5.211 2.56h3.989c.149 1.34 1.31 2.263 3.365 2.263 1.756 0 2.828-.566 2.828-1.638 0-1.25-1.042-1.34-3.513-1.667-3.573-.417-6.342-1.22-6.342-4.377 0-3.036 2.65-5.031 6.58-5.001 4.109 0 6.937 1.816 7.145 4.942h-4.019c-.119-1.22-1.28-1.965-2.977-1.965-1.638 0-2.709.595-2.709 1.578 0 1.161 1.31 1.28 3.513 1.548 3.513.357 6.43 1.161 6.43 4.615 0 3.036-2.858 4.971-6.966 4.971-4.258 0-7.145-1.994-7.324-5.27zM127.312 34c-5.091 0-8.158-3.067-8.158-7.8 0-4.764 3.126-7.86 7.86-7.86 4.585 0 7.681 2.858 7.741 7.353 0 .447-.03.953-.119 1.43h-11.105v.208c.089 2.173 1.488 3.483 3.602 3.483 1.697 0 2.888-.744 3.245-2.173h4.139c-.477 2.977-3.126 5.358-7.205 5.358zm-3.692-9.617h6.907c-.297-1.875-1.578-2.917-3.483-2.917-1.816 0-3.186 1.101-3.424 2.917z"/><path fill-rule="evenodd" clip-rule="evenodd" d="M60.643 16.196l7.626 7.626-2.441 2.442-5.185-5.185-8.979 8.979-2.441-2.442 11.42-11.42z"/><path fill-rule="evenodd" clip-rule="evenodd" d="M53.63 30.676v3.145h4.465V26.21l-4.466 4.466zm0-10.048l4.465-4.466v-3.181h-4.466v7.647zm12.741 7.674v5.519h4.466v-9.984l-4.466 4.465zm4.466-4.494l-4.466-4.466v-6.361h4.466v10.827z"/></g><path d="M141.097 16.672h-.83l1.372-3.75h.964l1.361 3.75h-.862l-.29-.82h-1.425l-.29.82zm.997-2.893l-.493 1.425h.992l-.499-1.425zm3.822 2.893v-3.75h1.528c.825 0 1.377.487 1.377 1.248 0 .482-.252.868-.643 1.056l.739 1.446h-.889l-.633-1.259h-.675v1.26h-.804zm1.463-3.08h-.659v1.151h.659c.381 0 .622-.225.622-.573 0-.354-.241-.579-.622-.579zm5.171 3.113c-1.115 0-1.79-.756-1.79-1.908s.702-1.908 1.838-1.908c.89 0 1.517.557 1.613 1.372h-.814c-.097-.418-.397-.691-.842-.691-.611 0-.975.503-.975 1.227 0 .718.359 1.227.965 1.227.455 0 .755-.273.852-.691h.809c-.091.814-.74 1.372-1.656 1.372zm3.72-.033v-3.75h.804v1.505h1.49v-1.506h.803v3.751h-.803v-1.548h-1.49v1.548h-.804zm5.344 0v-3.75h.804v3.75h-.804zm2.833-3.059v-.692h2.974v.692h-1.088v3.06h-.804v-3.06h-1.082zm5.009 3.059v-3.75h2.519v.69h-1.715v.842h1.393v.659h-1.393v.868h1.774v.691h-2.578zm6.215.033c-1.115 0-1.79-.756-1.79-1.908s.702-1.908 1.838-1.908c.89 0 1.517.557 1.613 1.372h-.815c-.096-.418-.396-.691-.841-.691-.611 0-.975.503-.975 1.227 0 .718.359 1.227.964 1.227.456 0 .756-.273.852-.691h.81c-.091.814-.74 1.372-1.656 1.372zm3.322-3.092v-.692h2.975v.692h-1.088v3.06h-.804v-3.06h-1.083zm4.983 1.441v-2.133h.804v2.176c0 .595.219.916.734.916.52 0 .739-.321.739-.916V12.92h.804v2.133c0 1.066-.53 1.65-1.543 1.65-1.008 0-1.538-.584-1.538-1.65zm5.303 1.618v-3.75h1.527c.825 0 1.377.487 1.377 1.248 0 .482-.252.868-.643 1.056l.74 1.446h-.89l-.632-1.259h-.675v1.26h-.804zm1.463-3.08h-.659v1.151h.659c.38 0 .621-.225.621-.573 0-.354-.241-.579-.621-.579zm3.562 3.08v-3.75h2.519v.69h-1.715v.842h1.393v.659h-1.393v.868h1.773v.691h-2.577zm-52.371 10.48h-1.366v-3.751h1.366c1.169 0 1.946.766 1.946 1.87 0 1.099-.777 1.881-1.946 1.881zm-.562-3.081v2.411h.562c.719 0 1.12-.498 1.12-1.21 0-.719-.401-1.201-1.12-1.201h-.562zm4.603 3.081v-3.751h2.519v.691h-1.715v.841h1.393v.66h-1.393v.868h1.774v.691h-2.578zm4.519-1.232l.788.01c.027.365.316.617.777.617.37 0 .643-.161.643-.456 0-.316-.305-.38-.932-.504-.633-.118-1.19-.321-1.19-1.082 0-.665.552-1.136 1.399-1.136.884 0 1.446.46 1.457 1.179h-.788c-.037-.316-.278-.536-.669-.536-.343 0-.59.145-.59.434 0 .305.295.37.916.487.643.118 1.212.311 1.206 1.067-.005.702-.584 1.184-1.463 1.184-.954 0-1.549-.503-1.554-1.264zm5.107 1.232v-3.751h.804v3.751h-.804zm4.681.032c-1.071 0-1.784-.755-1.784-1.908 0-1.152.707-1.907 1.86-1.907.905 0 1.543.557 1.639 1.366h-.803c-.097-.412-.397-.686-.858-.686-.627 0-1.018.504-1.018 1.227 0 .724.375 1.228 1.018 1.228.429 0 .863-.225.938-.75v-.049h-.933v-.637h1.678v2.084h-.563l-.08-.45c-.199.263-.563.482-1.094.482zm4.775-.032h-.787v-3.751h.728l1.592 2.363v-2.363h.793v3.751h-.734l-1.592-2.363v2.363zM142.207 21.945c-1.115 0-1.79-.756-1.79-1.908s.702-1.908 1.838-1.908c.89 0 1.517.557 1.613 1.372h-.815c-.096-.418-.396-.692-.841-.692-.611 0-.975.504-.975 1.228 0 .718.359 1.227.964 1.227.456 0 .756-.273.852-.691h.81c-.091.814-.74 1.372-1.656 1.372zm7.252-1.908c0 1.093-.755 1.908-1.859 1.908s-1.86-.815-1.86-1.908.756-1.908 1.86-1.908 1.859.814 1.859 1.908zm-2.899 0c0 .707.407 1.227 1.04 1.227.627 0 1.034-.52 1.034-1.227 0-.708-.407-1.227-1.034-1.227-.633 0-1.04.52-1.04 1.227zm5.782 1.875h-.788v-3.75h.729l1.591 2.362v-2.363h.793v3.751h-.734l-1.591-2.363v2.363zm4.422-1.232l.787.01c.027.365.317.617.778.617.369 0 .643-.161.643-.456 0-.316-.306-.38-.933-.503-.632-.118-1.19-.322-1.19-1.083 0-.665.552-1.136 1.399-1.136.884 0 1.447.46 1.458 1.179h-.788c-.038-.316-.279-.536-.67-.536-.343 0-.589.145-.589.434 0 .306.294.37.916.488.643.118 1.211.31 1.206 1.066-.006.702-.584 1.184-1.463 1.184-.954 0-1.549-.503-1.554-1.264zm4.741-1.828v-.69h2.974v.69h-1.088v3.06h-.804v-3.06h-1.082zm5.009 3.06v-3.75h1.527c.825 0 1.377.487 1.377 1.248 0 .482-.252.868-.643 1.055l.74 1.447h-.89l-.632-1.259h-.675v1.26h-.804zm1.463-3.081h-.659v1.152h.659c.38 0 .621-.225.621-.573 0-.354-.241-.58-.621-.58zm3.514 1.463V18.16h.804v2.176c0 .595.22.916.734.916.52 0 .74-.321.74-.916V18.16h.804v2.133c0 1.066-.531 1.65-1.544 1.65-1.007 0-1.538-.584-1.538-1.65zm6.943 1.651c-1.115 0-1.79-.756-1.79-1.908s.702-1.908 1.838-1.908c.89 0 1.517.557 1.613 1.372h-.814c-.097-.418-.397-.692-.842-.692-.611 0-.975.504-.975 1.228 0 .718.359 1.227.965 1.227.455 0 .755-.273.852-.691h.809c-.091.814-.74 1.372-1.656 1.372zm3.323-3.093v-.69h2.974v.69h-1.088v3.06h-.804v-3.06h-1.082zm5.009 3.06v-3.75h.804v3.75h-.804zm6.616-1.875c0 1.093-.756 1.908-1.86 1.908s-1.859-.815-1.859-1.908.755-1.908 1.859-1.908 1.86.814 1.86 1.908zm-2.9 0c0 .707.408 1.227 1.04 1.227.627 0 1.034-.52 1.034-1.227 0-.708-.407-1.227-1.034-1.227-.632 0-1.04.52-1.04 1.227zm5.782 1.875h-.788v-3.75h.729l1.592 2.362v-2.363h.793v3.751h-.735l-1.591-2.363v2.363z"/><defs><clipPath id="fa"><path transform="translate(47.198 3.652)" d="M0 0h89.792v39.696H0z"/></clipPath></defs></svg><svg viewBox="0 0 25 25" id="like-icon" xmlns="http://www.w3.org/2000/svg"><path clip-rule="evenodd" d="M12.201 20l-3.445-3.464-3.419-3.464a4.891 4.891 0 010-6.825 4.58 4.58 0 013.386-1.23 4.559 4.559 0 013.227 1.59l.251.24.249-.251a4.559 4.559 0 013.227-1.59 4.58 4.58 0 013.386 1.23 4.891 4.891 0 010 6.826l-3.419 3.464L12.201 20z"/></svg><svg viewBox="0 0 25 25" id="like-icon-2" xmlns="http://www.w3.org/2000/svg"><path clip-rule="evenodd" d="M12.201 20l-3.445-3.464-3.419-3.464a4.891 4.891 0 010-6.825 4.58 4.58 0 013.386-1.23 4.559 4.559 0 013.227 1.59l.251.24.249-.251a4.559 4.559 0 013.227-1.59 4.58 4.58 0 013.386 1.23 4.891 4.891 0 010 6.826l-3.419 3.464L12.201 20z"/></svg><svg viewBox="0 0 200 47" id="logo-main" xmlns="http://www.w3.org/2000/svg"><path fill-rule="evenodd" clip-rule="evenodd" d="M0 0h47v47H0V0zm3.652 3.652v39.696h39.696V3.652H3.652z" class="ifill-orange"/><path d="M8.336 16.86v-3.84H24.86v3.84h-6.044v17H14.35v-17H8.336z"/><path d="M24.851 33.86V13.02h13.755v3.84h-9.289v4.883h7.622v3.662h-7.622v8.456h-4.466z"/><g clip-path="url(#ia)"><path d="M79.828 34c-4.882 0-8.068-3.127-8.068-7.83 0-4.704 3.186-7.83 8.068-7.83 4.883 0 8.069 3.126 8.069 7.83 0 4.733-3.186 7.83-8.069 7.83zm0-3.424c2.352 0 3.811-1.816 3.811-4.407 0-2.59-1.459-4.406-3.81-4.406-2.353 0-3.782 1.816-3.782 4.406s1.43 4.407 3.781 4.407zm19.4-4.406v-7.652h4.198v15.303h-3.722l-.387-1.846C98.335 33.165 96.995 34 94.822 34c-3.156 0-6.074-1.577-6.074-6.996v-8.485h4.198v7.92c0 2.739.893 4.078 2.977 4.078 2.084 0 3.305-1.518 3.305-4.346zm5.211 2.56h3.989c.149 1.34 1.31 2.263 3.365 2.263 1.756 0 2.828-.566 2.828-1.638 0-1.25-1.042-1.34-3.513-1.667-3.573-.417-6.342-1.22-6.342-4.377 0-3.036 2.65-5.031 6.58-5.001 4.109 0 6.937 1.816 7.145 4.942h-4.019c-.119-1.22-1.28-1.965-2.977-1.965-1.638 0-2.709.595-2.709 1.578 0 1.161 1.31 1.28 3.513 1.548 3.513.357 6.43 1.161 6.43 4.615 0 3.036-2.858 4.971-6.966 4.971-4.258 0-7.145-1.994-7.324-5.27zM127.312 34c-5.091 0-8.158-3.067-8.158-7.8 0-4.764 3.126-7.86 7.86-7.86 4.585 0 7.681 2.858 7.741 7.353 0 .447-.03.953-.119 1.43h-11.105v.208c.089 2.173 1.488 3.483 3.602 3.483 1.697 0 2.888-.744 3.245-2.173h4.139c-.477 2.977-3.126 5.358-7.205 5.358zm-3.692-9.617h6.907c-.297-1.875-1.578-2.917-3.483-2.917-1.816 0-3.186 1.101-3.424 2.917z"/><path fill-rule="evenodd" clip-rule="evenodd" d="M60.643 16.196l7.626 7.626-2.441 2.442-5.185-5.185-8.979 8.979-2.441-2.442 11.42-11.42z"/><path fill-rule="evenodd" clip-rule="evenodd" d="M53.63 30.676v3.145h4.465V26.21l-4.466 4.466zm0-10.048l4.465-4.466v-3.181h-4.466v7.647zm12.741 7.674v5.519h4.466v-9.984l-4.466 4.465zm4.466-4.494l-4.466-4.466v-6.361h4.466v10.827z"/></g><path d="M141.097 16.672h-.83l1.372-3.75h.964l1.361 3.75h-.862l-.29-.82h-1.425l-.29.82zm.997-2.893l-.493 1.425h.992l-.499-1.425zm3.822 2.893v-3.75h1.528c.825 0 1.377.487 1.377 1.248 0 .482-.252.868-.643 1.056l.739 1.446h-.889l-.633-1.259h-.675v1.26h-.804zm1.463-3.08h-.659v1.151h.659c.381 0 .622-.225.622-.573 0-.354-.241-.579-.622-.579zm5.171 3.113c-1.115 0-1.79-.756-1.79-1.908s.702-1.908 1.838-1.908c.89 0 1.517.557 1.613 1.372h-.814c-.097-.418-.397-.691-.842-.691-.611 0-.975.503-.975 1.227 0 .718.359 1.227.965 1.227.455 0 .755-.273.852-.691h.809c-.091.814-.74 1.372-1.656 1.372zm3.72-.033v-3.75h.804v1.505h1.49v-1.506h.803v3.751h-.803v-1.548h-1.49v1.548h-.804zm5.344 0v-3.75h.804v3.75h-.804zm2.833-3.059v-.692h2.974v.692h-1.088v3.06h-.804v-3.06h-1.082zm5.009 3.059v-3.75h2.519v.69h-1.715v.842h1.393v.659h-1.393v.868h1.774v.691h-2.578zm6.215.033c-1.115 0-1.79-.756-1.79-1.908s.702-1.908 1.838-1.908c.89 0 1.517.557 1.613 1.372h-.815c-.096-.418-.396-.691-.841-.691-.611 0-.975.503-.975 1.227 0 .718.359 1.227.964 1.227.456 0 .756-.273.852-.691h.81c-.091.814-.74 1.372-1.656 1.372zm3.322-3.092v-.692h2.975v.692h-1.088v3.06h-.804v-3.06h-1.083zm4.983 1.441v-2.133h.804v2.176c0 .595.219.916.734.916.52 0 .739-.321.739-.916V12.92h.804v2.133c0 1.066-.53 1.65-1.543 1.65-1.008 0-1.538-.584-1.538-1.65zm5.303 1.618v-3.75h1.527c.825 0 1.377.487 1.377 1.248 0 .482-.252.868-.643 1.056l.74 1.446h-.89l-.632-1.259h-.675v1.26h-.804zm1.463-3.08h-.659v1.151h.659c.38 0 .621-.225.621-.573 0-.354-.241-.579-.621-.579zm3.562 3.08v-3.75h2.519v.69h-1.715v.842h1.393v.659h-1.393v.868h1.773v.691h-2.577zm-52.371 10.48h-1.366v-3.751h1.366c1.169 0 1.946.766 1.946 1.87 0 1.099-.777 1.881-1.946 1.881zm-.562-3.081v2.411h.562c.719 0 1.12-.498 1.12-1.21 0-.719-.401-1.201-1.12-1.201h-.562zm4.603 3.081v-3.751h2.519v.691h-1.715v.841h1.393v.66h-1.393v.868h1.774v.691h-2.578zm4.519-1.232l.788.01c.027.365.316.617.777.617.37 0 .643-.161.643-.456 0-.316-.305-.38-.932-.504-.633-.118-1.19-.321-1.19-1.082 0-.665.552-1.136 1.399-1.136.884 0 1.446.46 1.457 1.179h-.788c-.037-.316-.278-.536-.669-.536-.343 0-.59.145-.59.434 0 .305.295.37.916.487.643.118 1.212.311 1.206 1.067-.005.702-.584 1.184-1.463 1.184-.954 0-1.549-.503-1.554-1.264zm5.107 1.232v-3.751h.804v3.751h-.804zm4.681.032c-1.071 0-1.784-.755-1.784-1.908 0-1.152.707-1.907 1.86-1.907.905 0 1.543.557 1.639 1.366h-.803c-.097-.412-.397-.686-.858-.686-.627 0-1.018.504-1.018 1.227 0 .724.375 1.228 1.018 1.228.429 0 .863-.225.938-.75v-.049h-.933v-.637h1.678v2.084h-.563l-.08-.45c-.199.263-.563.482-1.094.482zm4.775-.032h-.787v-3.751h.728l1.592 2.363v-2.363h.793v3.751h-.734l-1.592-2.363v2.363z"/><path d="M142.207 21.945c-1.115 0-1.79-.756-1.79-1.908s.702-1.908 1.838-1.908c.89 0 1.517.557 1.613 1.372h-.815c-.096-.418-.396-.692-.841-.692-.611 0-.975.504-.975 1.228 0 .718.359 1.227.964 1.227.456 0 .756-.273.852-.691h.81c-.091.814-.74 1.372-1.656 1.372zm7.252-1.908c0 1.093-.755 1.908-1.859 1.908s-1.86-.815-1.86-1.908.756-1.908 1.86-1.908 1.859.814 1.859 1.908zm-2.899 0c0 .707.407 1.227 1.04 1.227.627 0 1.034-.52 1.034-1.227 0-.708-.407-1.227-1.034-1.227-.633 0-1.04.52-1.04 1.227z" class="ifill-orange"/><path d="M152.342 21.912h-.788v-3.75h.729l1.591 2.362v-2.363h.793v3.751h-.734l-1.591-2.363v2.363z"/><path d="M156.764 20.68l.787.01c.027.365.317.617.778.617.369 0 .643-.161.643-.456 0-.316-.306-.38-.933-.503-.632-.118-1.19-.322-1.19-1.083 0-.665.552-1.136 1.399-1.136.884 0 1.447.46 1.458 1.179h-.788c-.038-.316-.279-.536-.67-.536-.343 0-.589.145-.589.434 0 .306.294.37.916.488.643.118 1.211.31 1.206 1.066-.006.702-.584 1.184-1.463 1.184-.954 0-1.549-.503-1.554-1.264z" class="ifill-orange"/><path d="M161.505 18.852v-.69h2.974v.69h-1.088v3.06h-.804v-3.06h-1.082z"/><path d="M166.514 21.912v-3.75h1.527c.825 0 1.377.487 1.377 1.248 0 .482-.252.868-.643 1.055l.74 1.447h-.89l-.632-1.259h-.675v1.26h-.804zm1.463-3.081h-.659v1.152h.659c.38 0 .621-.225.621-.573 0-.354-.241-.58-.621-.58zm3.514 1.463V18.16h.804v2.176c0 .595.22.916.734.916.52 0 .74-.321.74-.916V18.16h.804v2.133c0 1.066-.531 1.65-1.544 1.65-1.007 0-1.538-.584-1.538-1.65zm6.943 1.651c-1.115 0-1.79-.756-1.79-1.908s.702-1.908 1.838-1.908c.89 0 1.517.557 1.613 1.372h-.814c-.097-.418-.397-.692-.842-.692-.611 0-.975.504-.975 1.228 0 .718.359 1.227.965 1.227.455 0 .755-.273.852-.691h.809c-.091.814-.74 1.372-1.656 1.372zm3.323-3.093v-.69h2.974v.69h-1.088v3.06h-.804v-3.06h-1.082zm5.009 3.06v-3.75h.804v3.75h-.804z" class="ifill-orange"/><path d="M193.382 20.037c0 1.093-.756 1.908-1.86 1.908s-1.859-.815-1.859-1.908.755-1.908 1.859-1.908 1.86.814 1.86 1.908zm-2.9 0c0 .707.408 1.227 1.04 1.227.627 0 1.034-.52 1.034-1.227 0-.708-.407-1.227-1.034-1.227-.632 0-1.04.52-1.04 1.227z"/><path d="M196.264 21.912h-.788v-3.75h.729l1.592 2.362v-2.363h.793v3.751h-.735l-1.591-2.363v2.363z" class="ifill-orange"/><defs><clipPath id="ia"><path transform="translate(47.198 3.652)" d="M0 0h89.792v39.696H0z"/></clipPath></defs></svg><svg viewBox="0 0 64 64" id="play" xmlns="http://www.w3.org/2000/svg"><g stroke-width="3"><circle cx="32" cy="32" r="26.5"/><path d="M42.25 29.835c1.667.962 1.667 3.368 0 4.33l-13.5 7.794c-1.667.962-3.75-.24-3.75-2.165V24.206c0-1.925 2.083-3.128 3.75-2.165l13.5 7.794z"/></g></svg><svg viewBox="0 0 18 18" id="print-icon" xmlns="http://www.w3.org/2000/svg"><g clip-path="url(#ka)"><path d="M16.618 3.559v-.853a.489.489 0 10-.978 0v.848H2.36V1.011h13.28v.098a.49.49 0 10.978 0V.522a.49.49 0 00-.489-.49H1.871a.49.49 0 00-.49.49v3.037A1.468 1.468 0 000 5.022v6.586c0 .81.658 1.468 1.467 1.468h1.794v4.01c0 .27.219.49.49.49h10.695a.49.49 0 00.489-.49v-4.01h1.598c.809 0 1.467-.658 1.467-1.468V5.022c0-.78-.613-1.419-1.382-1.463zm-2.661 13.038H4.239v-5.543h9.718v5.543zm3.065-4.989c0 .27-.22.49-.49.49h-1.597v-1.044h.358a.49.49 0 100-.978H2.707a.489.489 0 100 .978h.555v1.043H1.467a.49.49 0 01-.489-.489V5.022c0-.27.22-.49.49-.49h15.065c.27 0 .489.22.489.49v6.586zM5.87 13.468h6.26a.49.49 0 100-.98H5.87a.489.489 0 100 .98zm0 2.086h6.26a.49.49 0 100-.978H5.87a.489.489 0 100 .978zm9.424-9.75h-3.587a.49.49 0 00-.49.49v1.825c0 .27.22.49.49.49h3.587a.49.49 0 00.489-.49V6.293a.49.49 0 00-.49-.489zm-.49 1.826h-2.608v-.848h2.609v.848z"/></g><defs><clipPath id="ka"><path d="M0 0h18v17.609H0z"/></clipPath></defs></svg><svg viewBox="0 0 96 96" id="roof-icon" xmlns="http://www.w3.org/2000/svg"><circle cx="48" cy="48" r="47.5"/><path d="M27.832 31h35.147a1 1 0 01.864.496L70.27 42.5M27.832 31L13.897 54.49a1 1 0 00.86 1.51h27.68M27.832 31l6.718 11.5M40.306 31l18.711 33m-6.964-33l19.279 33m-28.896-8l4.384 7.504c.18.307.513.496.868.496h33.397c.773 0 1.257-.838.868-1.504l-5.621-9.623M42.436 56l-1.826-3.127M34.55 42.5h35.722m-35.722 0l6.06 10.373M70.272 42.5l6.06 10.373m0 0H40.61"/></svg><svg viewBox="0 0 10 26" id="rub" xmlns="http://www.w3.org/2000/svg"><path d="M1.392 19V7.576H4.4c1.397 0 2.432.283 3.104.848.683.566 1.024 1.387 1.024 2.464 0 .726-.165 1.35-.496 1.872-.33.512-.821.907-1.472 1.184-.64.277-1.435.416-2.384.416H2.832V19h-1.44zM0 16.824v-1.04h5.472v1.04H0zm0-2.464v-1.216h3.664v1.216H0zm3.968-1.216c.65 0 1.2-.07 1.648-.208.459-.139.81-.368 1.056-.688.245-.32.368-.757.368-1.312 0-.725-.224-1.264-.672-1.616-.448-.352-1.147-.528-2.096-.528h-1.44v4.352h1.136z"/></svg><svg viewBox="0 0 16 16" id="share-icon" xmlns="http://www.w3.org/2000/svg"><path d="M14.6 2.9a2.701 2.701 0 01-4.554 1.963L5.303 7.28c.13.471.13.969 0 1.44l4.743 2.417a2.7 2.7 0 11-.834 1.708l-5.05-2.575a2.7 2.7 0 110-4.54l5.05-2.575A2.7 2.7 0 1114.6 2.9z"/></svg><svg viewBox="0 0 96 96" id="tools-icon" xmlns="http://www.w3.org/2000/svg"><circle cx="48" cy="48" r="47.5"/><path d="M39.382 35.766l-4.451 4.451m4.45-4.451l5.461-5.46a.933.933 0 000-1.32l-1.183-1.183a.933.933 0 00-.905-.24l-5.359 1.461a.932.932 0 00-.414.24l-2.05 2.05m4.45 4.452l8.461 8.46a.933.933 0 010 1.32l-3.132 3.132a.933.933 0 01-1.319 0l-8.46-8.461m0 0l-4.626 4.626a.933.933 0 01-1.32 0l-3.132-3.132a.933.933 0 010-1.319l4.627-4.626m0 0l-1.845-1.844a.933.933 0 010-1.32l3.132-3.131a.933.933 0 011.32 0l1.844 1.844m-4.451 4.45l4.45-4.45m14.33 23.232l12.82 12.819a.933.933 0 001.318 0l3.132-3.132a.933.933 0 000-1.32L53.712 50.096a.933.933 0 00-1.32 0l-3.131 3.132a.933.933 0 000 1.319z"/><path d="M34.033 66.99l-3.175-3.175a.933.933 0 010-1.32l23.596-23.594a.933.933 0 00.271-.604l.353-5.932a.932.932 0 01.272-.605l2.828-2.827a.933.933 0 01.628-.273l3.73-.125c.846-.028 1.29.994.691 1.592l-3.233 3.234a.933.933 0 000 1.319l3.175 3.175a.933.933 0 001.319 0l3.22-3.221c.6-.6 1.625-.153 1.592.695l-.142 3.685a.933.933 0 01-.273.623l-2.831 2.831a.932.932 0 01-.6.272l-5.905.381a.933.933 0 00-.6.272L35.352 66.99a.933.933 0 01-1.319 0z"/></svg><svg viewBox="0 0 32 32" id="tour-icon" xmlns="http://www.w3.org/2000/svg"><g stroke-width="1.5"><path d="M16 8v7.692M16 8l6.265 3.718c.456.27.735.76.735 1.29v6.838M16 8l-6.265 3.718A1.5 1.5 0 009 13.008v6.838m7-4.154l-7 4.154m7-4.154l7 4.154m0 0l-6.235 3.7a1.5 1.5 0 01-1.53 0L9 19.846M2 8V3.5A1.5 1.5 0 013.5 2H8M2 24v4.5A1.5 1.5 0 003.5 30H8M24 2h4.5A1.5 1.5 0 0130 3.5V8m-6 22h4.5a1.5 1.5 0 001.5-1.5V24"/></g></svg><svg viewBox="0 0 96 96" id="wall-icon" xmlns="http://www.w3.org/2000/svg"><circle cx="48" cy="48" r="47.5"/><path d="M49.904 44.156V22m0 0L70 34.862M49.904 22L25 33.217m0 0v24.851a1 1 0 00.414.81L44.367 72.58M25 33.217l19.367 13.5m0 0V72.58m0-25.862L70 34.862M44.367 72.579L69.42 60.992a1 1 0 00.58-.907V34.862"/><path d="M31.4 63.218V48.19a.5.5 0 01.79-.407l4.6 3.286a.5.5 0 01.21.407v15.742m13-13.703v8.118c0 .333.344.553.646.415l4.56-2.086a.456.456 0 00.267-.415v-8.118a.456.456 0 00-.646-.415l-4.56 2.086a.456.456 0 00-.267.415zm10-5v8.118c0 .333.344.553.646.415l4.56-2.086a.456.456 0 00.267-.415v-8.118a.456.456 0 00-.646-.415l-4.56 2.086a.456.456 0 00-.267.415z"/></svg><svg viewBox="0 0 96 96" id="window-icon" xmlns="http://www.w3.org/2000/svg"><circle cx="48" cy="48" r="47.5"/><path d="M33 22.5V42h30V22.5"/><path d="M65 22.35H31v49.3h34v-49.3z"/><path d="M48 71.5V42H33v29.5m30 0V42H48v29"/></svg><svg viewBox="0 0 96 96" id="youtbe-btn-icon" xmlns="http://www.w3.org/2000/svg"><path d="M86.205 27.84c-.765-4.223-4.41-7.297-8.64-8.258-6.33-1.342-18.045-2.302-30.72-2.302-12.667 0-24.57.96-30.907 2.302-4.223.96-7.875 3.84-8.64 8.258C6.525 32.64 5.76 39.36 5.76 48s.765 15.36 1.725 20.16c.773 4.222 4.417 7.297 8.64 8.258 6.72 1.342 18.24 2.302 30.915 2.302s24.195-.96 30.915-2.302c4.222-.96 7.868-3.84 8.64-8.258.765-4.8 1.725-11.715 1.92-20.16-.39-8.64-1.35-15.36-2.31-20.16zM36.48 61.44V34.56L59.903 48 36.48 61.44z"/><path d="M36.48 34.56v26.88L59.903 48 36.48 34.56z"/></svg></svg>