<svg width="20" height="20" viewBox="0 0 20 20" fill="none" xmlns="http://www.w3.org/2000/svg">
<g id="Frame" clip-path="url(#clip0_2604_18035)">
<path id="Vector" d="M9.99999 0.800049C4.9237 0.800049 0.799988 4.92377 0.799988 10C0.799988 15.0763 4.9237 19.2 9.99999 19.2C15.0763 19.2 19.2 15.0763 19.2 10C19.2 4.92377 15.0763 0.800049 9.99999 0.800049ZM9.99999 1.60005C14.6439 1.60005 18.4 5.35612 18.4 10C18.4 14.644 14.6439 18.4 9.99999 18.4C5.35605 18.4 1.59999 14.644 1.59999 10C1.59999 5.35612 5.35605 1.60005 9.99999 1.60005ZM13.6351 5.61411C13.3615 5.61411 13.0541 5.67748 12.6945 5.80708C12.1361 6.00828 5.56828 8.79691 4.82108 9.11411C4.39388 9.29571 3.59843 9.63351 3.59843 10.4391C3.59843 10.9731 3.91133 11.355 4.52733 11.575C4.85853 11.693 5.64515 11.9315 6.10155 12.0571C6.29515 12.1103 6.50089 12.1375 6.71249 12.1375C7.12649 12.1375 7.54312 12.0344 7.86952 11.8524C7.86672 11.9196 7.86855 11.9875 7.87655 12.0555C7.92575 12.4755 8.18474 12.8705 8.56874 13.1125C8.81994 13.2709 10.8717 14.6457 11.1781 14.8641C11.6085 15.1717 12.0843 15.3344 12.5531 15.3344C13.4491 15.3344 13.7497 14.4093 13.8945 13.9649C14.1045 13.3197 14.8909 8.07291 14.9797 7.14771C15.0401 6.51371 14.7758 5.99163 14.2726 5.75083C14.0842 5.66003 13.8691 5.61411 13.6351 5.61411ZM13.6351 6.41411C13.7451 6.41411 13.8434 6.43231 13.9266 6.47271C14.1158 6.56351 14.212 6.76592 14.1828 7.07192C14.086 8.08112 13.3016 13.2036 13.1344 13.7172C12.9912 14.1564 12.8403 14.5344 12.5531 14.5344C12.2659 14.5344 11.9522 14.4337 11.643 14.2125C11.3338 13.9917 9.2805 12.6148 8.9953 12.4352C8.7453 12.2776 8.48071 11.8847 8.85311 11.5047C9.15991 11.1919 11.4871 8.93322 11.6859 8.73442C11.8339 8.58602 11.7647 8.40708 11.6195 8.40708C11.5695 8.40708 11.5096 8.42816 11.4476 8.47896C11.2044 8.67776 7.8139 10.9466 7.5203 11.129C7.3259 11.2498 7.02489 11.3368 6.71249 11.3368C6.57929 11.3368 6.44443 11.3208 6.31483 11.2852C5.86363 11.1608 5.10006 10.9291 4.79686 10.8211C4.50526 10.7171 4.39921 10.6175 4.39921 10.4391C4.39921 10.1855 4.75716 10.0104 5.13436 9.85005C5.53276 9.68085 12.4264 6.75342 12.9656 6.55942C13.2152 6.46902 13.4435 6.41411 13.6351 6.41411Z" fill="#ff772c"/>
</g>
<defs>
<clipPath id="clip0_2604_18035">
<rect width="20" height="20" fill="white"/>
</clipPath>
</defs>
</svg>
