<svg width="197" height="200" viewBox="0 0 197 200" fill="none" xmlns="http://www.w3.org/2000/svg">
<path fill-rule="evenodd" clip-rule="evenodd" d="M37.3047 32.9195C48.2285 14.3174 63.3283 8.49273 74.5582 2.97406C81.5774 1.2143 88.8879 0.190044 96.4082 0C94.4486 0.856431 92.521 1.79431 90.6403 2.8161C68.8322 14.6679 63.1432 10.8744 37.3047 32.9195ZM85.3462 95.8116C85.3462 95.8116 92.8122 83.1305 101.228 85.9738C109.642 88.8195 107.947 100.434 100.636 108.673C93.3231 116.909 82.8288 113.372 82.5005 106.716C82.1723 100.059 85.3462 95.8116 85.3462 95.8116ZM85.0081 84.6262C100.801 66.1401 119.423 65.3849 119.539 83.365C119.658 101.738 113.376 121.532 92.8715 125.918C72.369 130.303 70.2341 108.14 72.9613 104.702C75.6861 101.264 75.6861 127.458 90.976 120.229C106.266 112.997 111.718 102.685 112.547 93.7977C113.376 84.9076 113.08 75.0697 106.384 75.9582C99.6883 76.8467 91.3906 85.6776 86.7086 87.8693C82.4437 89.8684 83.1866 86.7562 85.0081 84.6262ZM79.9263 66.187C91.4227 57.1883 111.407 48.9696 122.032 53.617C133.41 58.5952 142.774 68.6699 138.035 87.8718C133.294 107.071 125.707 129.353 99.1577 144.051C72.6084 158.748 52.9327 136.111 55.0651 118.094C57.2 100.079 69.1703 75.3067 74.5039 75.6621C79.8374 76.0175 66.5615 87.3954 64.0737 99.7236C61.5834 112.049 59.8063 127.695 70.5919 133.265C81.3775 138.836 101.882 135.4 114.919 113.589C127.958 91.7812 129.555 82.2815 130.564 72.224C131.048 67.4186 123.826 60.5746 114.613 59.3948C104.548 58.104 95.1421 63.5659 83.5001 69.8349C77.4483 73.0928 75.6244 69.551 79.9263 66.187ZM151.193 62.0308C151.193 62.0308 143.132 46.5039 127.842 40.6965C112.552 34.8866 97.4991 35.8368 76.4018 50.058C55.3045 64.2817 41.7942 83.9549 37.5268 110.981C33.2595 138.004 40.3701 144.759 44.282 149.5C48.1939 154.241 62.7705 169.531 85.0525 162.658C107.337 155.784 124.167 147.96 136.73 127.1C147.357 109.453 167.151 81.7015 151.193 62.0308ZM149.591 66.3549C149.591 66.3549 142.717 99.8963 140.822 107.72C138.924 115.542 118.478 146.181 99.0417 153.528C79.603 160.878 53.0536 160.167 48.3124 137.883C43.5712 115.601 46.4169 98.5339 60.875 78.1474C75.3356 57.7609 99.9895 46.383 114.45 46.6199C128.911 46.8569 138.628 59.422 149.591 66.3549ZM116.943 162.12C146.101 142.681 151.553 131.303 159.137 115.184C166.724 99.0646 165.54 78.4436 161.983 65.4046C158.427 52.3681 143.729 36.4859 123.343 34.5879C102.959 32.6924 65.0288 36.9598 45.8295 69.9089C45.8295 69.9089 44.2277 71.9821 43.4577 71.0936C42.6876 70.2051 44.3462 65.2862 47.4881 61.2558C50.6275 57.2278 60.3469 42.2934 79.3093 33.0479C98.2741 23.8024 118.542 20.0114 136.912 25.9373C155.285 31.8632 164.767 53.1974 168.321 65.5256C171.878 77.8513 172.352 109.853 165.715 122.652C159.076 135.454 138.615 162.139 116.943 162.12ZM106.3 200C106.893 199.469 107.433 198.963 107.937 198.504C113.389 193.529 122.397 188.311 128.797 186.416C135.197 184.52 139.227 172.905 155.583 166.266C171.939 159.629 193.274 127.628 193.985 120.515C194.374 116.618 196.759 117.992 196.295 123.894C194.873 129.741 192.936 135.388 190.537 140.783C189.436 142.829 188.147 145.003 186.637 147.304C171.229 170.77 153.688 177.407 151.316 183.333C150.82 184.572 149.848 185.863 148.579 187.146C135.952 194.358 121.603 198.897 106.3 200ZM36.7049 82.8245C20.1119 93.2547 13.4752 129.76 16.5554 139.243C19.638 148.725 33.1509 164.607 33.8617 169.349C34.5725 174.09 63.2543 178.118 72.9737 179.305C82.693 180.49 81.5083 182.148 91.4646 178.831C101.418 175.512 106.752 170.652 102.961 169.704C99.1676 168.756 88.9743 173.734 75.464 170.77C61.9511 167.806 47.9669 171.007 42.3964 160.696C36.8259 150.384 28.0543 140.785 26.988 135.212C25.9218 129.642 23.3106 113.997 31.6083 100.96C39.9036 87.9211 38.3635 80.4551 36.7049 82.8245ZM27.304 58.8148C40.5009 40.2424 71.4138 16.1586 88.5079 9.45282C98.1409 5.67169 111.604 2.39406 125.635 3.55653C153.155 11.1336 175.928 30.1577 188.515 55.1867C193.723 67.1373 195.043 80.4601 192.336 99.5311C187.121 136.274 144.215 169.462 134.022 176.099C128.333 179.804 109.941 193.546 86.4766 199.492C75.3307 198.102 64.7549 194.879 55.0602 190.137C80.4421 196.002 100.128 187.857 117.427 176.575C139.235 162.352 164.125 145.995 175.977 119.92C187.829 93.8446 183.09 57.3389 174.319 46.9087C165.547 36.4785 146.111 14.1965 121.694 14.4334C97.277 14.6704 57.4518 38.3765 37.0653 59.7107C22.037 75.4399 18.0659 71.8168 27.304 58.8148ZM0.191895 116.558C3.61515 103.779 9.13628 94.1432 12.1794 91.7096C20.4747 85.0729 14.7858 106.644 12.6533 114.466C11.6068 118.298 8.06266 130.496 8.95118 144.004C4.78009 135.467 1.79369 126.246 0.191895 116.558Z" fill="#C6B9B1"/>
</svg>
